<svg width="245" height="274" xmlns="http://www.w3.org/2000/svg"><path d="M124.06 43.36c9.05.11 18 .74 26.66 3.77A36.63 36.63 0 0 1 155 49a5.78 5.78 0 0 1 3.46 6 82.57 82.57 0 0 0 0 8.76c.15 3-1.28 4.79-3.72 6.13a33.55 33.55 0 0 1-11.4 3.66c-2.13.33-3.18 1.14-3 3.55a82.55 82.55 0 0 1 0 8.76 4.24 4.24 0 0 0 2.17 4.08c13.32 8.36 21.83 20 23.77 35.87 1 8 0 16-1.79 23.88-2.1 9-6 17.19-10.38 25.22-2.18 4-4.19 8.09-6.1 12.24a21.5 21.5 0 0 0-.41 17c2.48 6.76 5.1 13.47 7.64 20.22 1.75 4.62.8 7.15-3.72 9.26-5.37 2.51-11.15 3.37-17 3.65a162.9 162.9 0 0 1-26.78-.51 34.37 34.37 0 0 1-11.54-3.17c-4.5-2.25-5.41-4.93-3.6-9.58 2.41-6.2 4.75-12.44 7.21-18.62a24 24 0 0 0-1.09-21.09c-3.16-6-6.23-12-9.28-18A75.78 75.78 0 0 1 81.31 132c-.11-17.88 8.27-31.38 22.87-41.2 2.36-1.59 3.78-3.14 3.48-6.13a39.66 39.66 0 0 1 0-7.39c.22-2.47-.85-3.4-3.12-3.78a35.06 35.06 0 0 1-10.42-3.19c-2.9-1.49-4.76-3.44-4.35-7.09a42.87 42.87 0 0 0 0-7.93c-.26-3.44 1.38-5.44 4.3-6.85 5.77-2.78 12-3.75 18.23-4.49a73 73 0 0 1 11.76-.59z" fill="#00b77d"/></svg>