<svg width="32" height="32" fill="none" xmlns="http://www.w3.org/2000/svg"><path d="M16 31c8.284 0 15-6.716 15-15 0-8.284-6.716-15-15-15C7.716 1 1 7.716 1 16c0 8.284 6.716 15 15 15z" stroke="#000" stroke-width="2" stroke-linecap="round" stroke-linejoin="round"/><path d="M26 27.25v-1.667c0-.884-.527-1.732-1.465-2.357-.937-.625-2.209-.976-3.535-.976H11c-1.326 0-2.598.351-3.536.976C6.527 23.851 6 24.7 6 25.583v1.667m10-10a5 5 0 1 0 0-10 5 5 0 0 0 0 10z" stroke="#000" stroke-width="2" stroke-linecap="round" stroke-linejoin="round"/></svg>