<svg fill="none" xmlns="http://www.w3.org/2000/svg" viewBox="0 0 1428 269"><path d="M125.092 85.792c3.668 1.834 4.454 9.17 12.575 13.623 6.026 3.406 11.79.786 13.1-.262.262-.262.524-.262.786 0 .786.262 1.834 1.048 2.882 1.572 0 0 .262.262 0 .262-1.048 2.62-1.048 4.716-.262 5.24l2.882 1.572c1.31.786 4.454-2.358 7.074-6.812 2.619-4.453 3.667-8.645 2.357-9.431l-2.881-1.572c-.786-.524-2.62.786-4.454 2.882 0 0-.262.262-.262 0-.786-.524-2.096-1.31-2.882-1.572-.262-.262-.524-.524-.524-.786 0-1.834-.524-8.122-6.55-11.528-8.122-4.716-14.672-1.834-18.078-3.93-1.571-1.048-3.929-4.454-5.501-6.288-1.31-1.572-3.668 0-6.812 5.502l-.262.262c0 .262-.262.262-.262.262-3.144 5.502-3.144 8.384-1.31 8.646 2.358 1.048 6.812 1.572 8.384 2.358zM88.675 50.685c-3.668-1.834-4.453-9.17-12.575-13.624-6.026-3.406-11.79-.786-13.1.262-.262.262-.524.262-.786 0-.786-.262-1.834-1.048-2.882-1.572 0 0-.262-.262 0-.262 1.048-2.62 1.048-4.715.262-5.24l-2.882-1.572c-1.31-.785-4.454 2.358-7.074 6.812-2.62 4.454-3.667 8.646-2.357 9.432l2.882 1.572c.786.524 2.62-.786 4.453-2.882 0 0 .262-.262.262 0 .786.524 2.096 1.31 2.882 1.572.262.262.524.524.524.786 0 1.834.524 8.122 6.55 11.528 8.122 4.716 14.672 1.834 18.078 3.93 1.572 1.047 3.93 4.453 5.501 6.287 1.31 1.572 3.668 0 6.812-5.501l.262-.262c0-.262.262-.262.262-.262 3.144-5.502 3.144-8.384 1.31-8.646-2.62-1.31-6.812-1.572-8.384-2.358zm12.051 42.181c.262 4.192-5.501 8.383-5.763 17.815 0 7.074 5.239 10.48 6.811 11.266.262.262.524.524.524.786v3.144c0 .262 0 .262-.262.262-2.882.524-4.715 1.31-4.715 2.358v3.406c0 1.572 4.191 2.619 9.431 2.619 5.24 0 9.432-1.309 9.432-2.619v-3.406c0-1.048-1.834-1.834-4.716-2.358-.262 0-.262-.262-.262-.262v-3.144c0-.262.262-.524.524-.786 1.572-.786 6.812-4.454 6.812-11.266 0-9.432-5.764-13.623-5.764-17.815 0-1.834 1.834-5.764 2.62-7.86.786-1.834-1.834-3.144-8.384-3.144h-1.048c-6.55 0-8.907 1.572-8.383 3.144 1.31 2.096 3.143 6.026 3.143 7.86zm12.314-49.255c-.262-4.192 5.502-8.384 5.764-17.815 0-7.074-5.24-10.48-6.812-11.266-.262-.262-.524-.524-.524-.786V10.6c0-.262 0-.262.262-.262 2.882-.524 4.716-1.31 4.716-2.358V4.574c0-1.572-4.192-2.62-9.432-2.62-5.239 0-9.431 1.31-9.431 2.62V7.98c0 1.048 1.834 1.834 4.716 2.358.262 0 .262.262.262.262v3.144c0 .262-.262.524-.524.786-1.572.786-6.812 4.454-6.812 11.266 0 9.431 5.764 13.623 5.764 17.815 0 1.834-1.834 5.764-2.62 7.86-.786 1.834 1.834 3.144 8.383 3.144h1.048c6.55 0 8.908-1.572 8.384-3.144-1.31-2.096-3.144-6.026-3.144-7.86z" stroke="#fff" stroke-width=".5" stroke-miterlimit="10"/><path d="M82.649 75.05c-3.406 2.096-9.956-.786-18.078 3.93-6.025 3.406-6.55 9.694-6.55 11.528 0 .262-.261.524-.523.786-.786.262-1.834 1.047-2.882 1.572h-.262c-1.834-2.096-3.406-3.406-4.454-2.882l-2.882 1.572c-1.31.785-.262 4.977 2.358 9.431 2.62 4.454 5.764 7.598 7.074 6.812l2.881-1.572c.786-.524.786-2.62-.262-5.24v-.262c.786-.524 2.096-1.31 2.883-1.572.262-.262.523-.262.785 0 1.572.786 7.074 3.668 13.1.262 8.122-4.716 8.908-11.79 12.576-13.623 1.572-.786 5.764-1.31 8.121-1.572 1.834-.262 1.834-3.144-1.31-8.646l-.262-.262c0-.262-.261-.262-.261-.262-3.144-5.502-5.764-7.074-6.812-5.502-1.31 1.048-3.93 4.716-5.24 5.502zm48.469-13.885c3.406-2.096 9.955.786 18.077-3.93 6.026-3.406 6.55-9.694 6.55-11.528 0-.262.262-.524.524-.786.786-.262 1.834-1.048 2.882-1.572h.262c1.834 2.096 3.406 3.406 4.454 2.882l2.882-1.572c1.31-.786.262-4.978-2.358-9.432-2.62-4.453-5.764-7.597-7.074-6.811l-2.882 1.572c-.786.524-.786 2.62.262 5.24v.261c-.786.524-2.096 1.31-2.882 1.572-.262.262-.524.262-.786 0-1.572-.786-7.074-3.668-13.1-.262-8.121 4.716-8.907 11.79-12.575 13.624-1.572.786-5.764 1.31-8.122 1.572-1.834.262-1.834 3.144 1.31 8.646l.262.262c0 .262.262.262.262.262 3.144 5.502 5.764 7.073 6.812 5.501 1.31-1.047 3.93-4.453 5.24-5.501zM10.864 18.46c3.667 1.834 4.453 9.17 12.575 13.623 6.026 3.406 11.79.786 13.1-.262.262-.262.524-.262.786 0 .786.262 1.834 1.048 2.882 1.572 0 0 .262.262 0 .262-1.048 2.62-1.048 4.716-.262 5.24l2.882 1.572c1.31.786 4.454-2.358 7.073-6.812 2.62-4.454 3.668-8.645 2.358-9.431l-2.882-1.572c-.786-.524-2.62.786-4.453 2.882 0 0-.263.262-.263 0-.785-.524-2.095-1.31-2.881-1.572-.262-.262-.524-.524-.524-.786 0-1.834-.524-8.122-6.55-11.528-8.122-4.716-14.672-1.834-18.078-3.93-1.572-1.048-3.93-4.454-5.501-6.288-1.31-1.572-3.668 0-6.812 5.502l-.262.262c0 .262-.262.262-.262.262C.646 12.958.646 15.84 2.48 16.102c2.358 1.048 6.812 1.572 8.384 2.358zm193.351 98.771c-3.668-1.834-4.454-9.17-12.576-13.624-6.026-3.405-11.79-.786-13.1.262-.262.262-.524.262-.786 0-.786-.262-1.834-1.048-2.882-1.572 0 0-.262-.262 0-.262 1.048-2.62 1.048-4.715.262-5.24l-2.882-1.571c-1.309-.786-4.453 2.358-7.073 6.811-2.62 4.454-3.668 8.646-2.358 9.432l2.882 1.572c.786.524 2.62-.786 4.454-2.882 0 0 .262-.262.262 0 .786.524 2.096 1.31 2.882 1.572.262.262.523.524.523.786 0 1.834.524 8.122 6.55 11.528 8.122 4.716 14.672 1.834 18.078 3.93 1.572 1.048 3.93 4.454 5.502 6.288 1.31 1.571 3.667 0 6.811-5.502l.262-.262c0-.262.262-.262.262-.262 3.144-5.502 3.144-8.384 1.31-8.646-2.62-1.31-7.073-1.572-8.383-2.358zm-.525-98.771c-3.668 1.834-4.454 9.17-12.576 13.623-6.026 3.406-11.79.786-13.1-.262-.262-.262-.524-.262-.785 0-.786.262-1.834 1.048-2.882 1.572 0 0-.262.262 0 .262 1.048 2.62 1.048 4.716.262 5.24l-2.882 1.572c-1.31.786-4.454-2.358-7.074-6.812-2.62-4.454-3.668-8.645-2.358-9.431l2.882-1.572c.786-.524 2.62.786 4.454 2.882 0 0 .262.262.262 0 .786-.524 2.096-1.31 2.882-1.572.262-.262.524-.524.524-.786 0-1.834.524-8.122 6.549-11.528 8.122-4.716 14.672-1.834 18.078-3.93 1.572-1.048 3.93-4.454 5.502-6.288 1.31-1.572 3.668 0 6.811 5.502l.262.262c0 .262.262.262.262.262 3.144 5.502 3.144 8.384 1.31 8.646-2.619 1.31-6.811 1.572-8.383 2.358zM10.34 117.231c3.668-1.834 4.454-9.17 12.576-13.624 6.026-3.405 11.79-.786 13.1.262.262.262.524.262.786 0 .786-.262 1.834-1.048 2.882-1.572 0 0 .262-.262 0-.262-1.048-2.62-1.048-4.715-.262-5.24l2.882-1.571c1.31-.786 4.453 2.358 7.073 6.811 2.62 4.454 3.668 8.646 2.358 9.432l-2.882 1.572c-.785.524-2.62-.786-4.453-2.882 0 0-.262-.262-.262 0-.786.524-2.096 1.31-2.882 1.572-.262.262-.524.524-.524.786 0 1.834-.524 8.122-6.55 11.528-8.122 4.716-14.672 1.834-18.078 3.93-1.571 1.048-3.93 4.454-5.501 6.288-1.31 1.571-3.668 0-6.812-5.502l-.262-.262c0-.262-.262-.262-.262-.262-3.144-5.502-3.144-8.384-1.31-8.646 2.358-1.048 6.812-1.572 8.384-2.358z" stroke="#fff" stroke-width=".5" stroke-miterlimit="10"/><path d="M222.029 67.19c-5.24 0-8.384-.786-9.432-2.358v-3.667c0-.262.262-.786.524-1.048 1.048-.786 2.358-1.31 4.192-1.572v-3.668c0-.262 0-.262-.262-.262-3.93-2.62-6.288-5.764-6.812-9.694-.524-4.716.524-9.17 3.144-13.624 1.572-2.62 2.358-4.716 2.358-6.288 0-1.047-.786-3.143-2.358-6.55-.524-1.31-.786-2.357.262-2.881 2.096-1.048 4.716-1.572 8.122-1.572m.262 53.971c-5.24 0-8.384.785-9.432 2.358v3.667c0 .262.262.786.524 1.048 1.048.786 2.358 1.31 4.192 1.572v3.668c0 .262 0 .262-.262.262-3.93 2.62-6.288 5.764-6.812 9.694-.524 4.716.524 9.17 3.144 13.624 1.572 2.619 2.358 4.715 2.358 6.287 0 1.048-.786 3.144-2.358 6.55-.524 1.31-.786 2.358.262 2.882 2.096 1.048 4.716 1.572 8.122 1.572" stroke="#fff" stroke-width=".5" stroke-miterlimit="22.926"/><path d="M125.092 219.146c3.668 1.834 4.454 9.17 12.575 13.624 6.026 3.406 11.79.786 13.1-.262.262-.262.524-.262.786 0 .786.262 1.834 1.048 2.882 1.572 0 0 .262.262 0 .262-1.048 2.62-1.048 4.715-.262 5.239l2.882 1.572c1.31.786 4.454-2.358 7.074-6.811 2.619-4.454 3.667-8.646 2.357-9.432l-2.881-1.572c-.786-.524-2.62.786-4.454 2.882 0 0-.262.262-.262 0-.786-.524-2.096-1.31-2.882-1.572-.262-.262-.524-.524-.524-.786 0-1.834-.524-8.122-6.55-11.528-8.122-4.716-14.672-1.834-18.078-3.93-1.571-1.048-3.929-4.453-5.501-6.287-1.31-1.572-3.668 0-6.812 5.501l-.262.262c0 .262-.262.262-.262.262-3.144 5.502-3.144 8.384-1.31 8.646 2.358 1.048 6.812 1.31 8.384 2.358zm-36.417-35.107c-3.668-1.834-4.453-9.17-12.575-13.623-6.026-3.406-11.79-.786-13.1.262-.262.262-.524.262-.786 0-.786-.262-1.834-1.048-2.882-1.572 0 0-.262-.262 0-.262 1.048-2.62 1.048-4.716.262-5.24l-2.882-1.572c-1.31-.786-4.454 2.358-7.074 6.812-2.62 4.453-3.667 8.645-2.357 9.431l2.882 1.572c.786.524 2.62-.786 4.453-2.882 0 0 .262-.262.262 0 .786.524 2.096 1.31 2.882 1.572.262.262.524.524.524.786 0 1.834.524 8.122 6.55 11.528 8.122 4.716 14.672 1.834 18.078 3.93 1.572 1.048 3.93 4.454 5.501 6.288 1.31 1.572 3.668 0 6.812-5.502l.262-.262c0-.262.262-.262.262-.262 3.144-5.502 3.144-8.384 1.31-8.646-2.62-1.31-6.812-1.572-8.384-2.358zm12.051 41.919c.262 4.191-5.501 8.383-5.763 17.815 0 7.074 5.239 10.48 6.811 11.266.262.262.524.524.524.786v3.144c0 .262 0 .262-.262.262-2.882.524-4.715 1.309-4.715 2.357v3.406c0 1.572 4.191 2.62 9.431 2.62 5.24 0 9.432-1.31 9.432-2.62v-3.406c0-1.048-1.834-1.833-4.716-2.357-.262 0-.262-.262-.262-.262v-3.144c0-.262.262-.524.524-.786 1.572-.786 6.812-4.454 6.812-11.266 0-9.432-5.764-13.624-5.764-17.815 0-1.834 1.834-5.764 2.62-7.86.786-1.834-1.834-3.144-8.384-3.144h-1.048c-6.55 0-8.907 1.572-8.383 3.144 1.31 2.096 3.143 6.288 3.143 7.86zm12.314-48.993c-.262-4.192 5.502-8.384 5.764-17.815 0-7.074-5.24-10.48-6.812-11.266-.262-.262-.524-.524-.524-.786v-3.144c0-.262 0-.262.262-.262 2.882-.524 4.716-1.31 4.716-2.358v-3.406c0-1.572-4.192-2.62-9.432-2.62-5.239 0-9.431 1.31-9.431 2.62v3.406c0 1.048 1.834 1.834 4.716 2.358.262 0 .262.262.262.262v3.144c0 .262-.262.524-.524.786-1.572.786-6.812 4.454-6.812 11.266 0 9.431 5.764 13.623 5.764 17.815 0 1.834-1.834 5.764-2.62 7.86-.786 1.834 1.834 3.144 8.383 3.144h1.048c6.55 0 8.908-1.572 8.384-3.144-1.31-2.096-3.144-6.026-3.144-7.86z" stroke="#fff" stroke-width=".5" stroke-miterlimit="10"/><path d="M82.649 208.404c-3.406 2.096-9.956-.786-18.078 3.93-6.025 3.406-6.55 9.694-6.55 11.528 0 .262-.261.524-.523.786-.786.262-1.834 1.048-2.882 1.572h-.262c-1.834-2.096-3.406-3.406-4.454-2.882l-2.882 1.572c-1.31.786-.262 4.978 2.358 9.432 2.62 4.453 5.764 7.597 7.074 6.811l2.881-1.572c.786-.524.786-2.62-.262-5.239v-.262c.786-.524 2.096-1.31 2.883-1.572.262-.262.523-.262.785 0 1.572.786 7.074 3.667 13.1.262 8.122-4.716 8.908-11.79 12.576-13.624 1.572-.786 5.764-1.31 8.121-1.572 1.834-.262 1.834-3.144-1.31-8.646l-.262-.262c0-.262-.261-.262-.261-.262-3.144-5.502-5.764-7.074-6.812-5.502-1.31 1.048-3.93 4.716-5.24 5.502zm48.469-13.885c3.406-2.096 9.955.786 18.077-3.93 6.026-3.406 6.55-9.694 6.55-11.528 0-.262.262-.524.524-.786.786-.262 1.834-1.048 2.882-1.572h.262c1.834 2.096 3.406 3.406 4.454 2.882l2.882-1.572c1.31-.786.262-4.978-2.358-9.432-2.62-4.454-5.764-7.597-7.074-6.811l-2.882 1.572c-.786.523-.786 2.619.262 5.239v.262c-.786.524-2.096 1.31-2.882 1.572-.262.262-.524.262-.786 0-1.572-.786-7.074-3.668-13.1-.262-8.121 4.716-8.907 11.79-12.575 13.624-1.572.786-5.764 1.31-8.122 1.572-1.834.262-1.834 3.144 1.31 8.646l.262.262c0 .262.262.262.262.262 3.144 5.501 5.764 7.073 6.812 5.501 1.31-1.048 3.93-4.453 5.24-5.501zM10.863 151.814c3.668 1.834 4.454 9.17 12.576 13.623 6.025 3.406 11.79.786 13.1-.262.261-.262.523-.262.785 0 .786.262 1.834 1.048 2.882 1.572 0 0 .262.262 0 .262-1.048 2.62-1.048 4.716-.262 5.24l2.882 1.572c1.31.786 4.454-2.358 7.074-6.812 2.62-4.454 3.668-8.645 2.358-9.431l-2.882-1.572c-.786-.524-2.62.786-4.454 2.882 0 0-.262.262-.262 0-.786-.524-2.096-1.31-2.882-1.572-.262-.262-.524-.524-.524-.786 0-1.834-.524-8.122-6.55-11.528-8.122-4.716-14.671-1.834-18.077-3.93-1.572-1.048-3.93-4.454-5.502-6.288-1.31-1.572-3.668 0-6.812 5.502l-.262.262c0 .262-.262.262-.262.262-3.144 5.502-3.144 8.384-1.31 8.646 2.358 1.048 6.812 1.31 8.384 2.358zm193.352 98.509c-3.668-1.834-4.454-9.17-12.576-13.624-6.026-3.406-11.79-.786-13.1.262-.262.262-.524.262-.786 0-.786-.262-1.834-1.048-2.882-1.572 0 0-.262-.262 0-.262 1.048-2.62 1.048-4.716.262-5.24l-2.882-1.572c-1.309-.785-4.453 2.358-7.073 6.812-2.62 4.454-3.668 8.646-2.358 9.432l2.882 1.572c.786.524 2.62-.786 4.454-2.882 0 0 .262-.262.262 0 .786.524 2.096 1.31 2.882 1.572.262.262.523.524.523.786 0 1.834.524 8.122 6.55 11.528 8.122 4.716 14.672 1.834 18.078 3.93 1.572 1.047 3.93 4.453 5.502 6.287 1.31 1.572 3.667 0 6.811-5.501l.262-.262c0-.262.262-.262.262-.262 3.144-5.502 3.144-8.384 1.31-8.646-2.62-1.048-7.073-1.31-8.383-2.358zm-.525-98.509c-3.668 1.834-4.454 9.17-12.576 13.623-6.026 3.406-11.79.786-13.1-.262-.262-.262-.524-.262-.785 0-.786.262-1.834 1.048-2.882 1.572 0 0-.262.262 0 .262 1.048 2.62 1.048 4.716.262 5.24l-2.882 1.572c-1.31.786-4.454-2.358-7.074-6.812-2.62-4.454-3.668-8.645-2.358-9.431l2.882-1.572c.786-.524 2.62.786 4.454 2.882 0 0 .262.262.262 0 .786-.524 2.096-1.31 2.882-1.572.262-.262.524-.524.524-.786 0-1.834.524-8.122 6.549-11.528 8.122-4.716 14.672-1.834 18.078-3.93 1.572-1.048 3.93-4.454 5.502-6.288 1.31-1.572 3.668 0 6.811 5.502l.262.262c0 .262.262.262.262.262 3.144 5.502 3.144 8.384 1.31 8.646-2.619 1.048-6.811 1.572-8.383 2.358zM10.34 250.585c3.668-1.834 4.454-9.17 12.576-13.624 6.026-3.405 11.79-.786 13.1.262.262.262.524.262.786 0 .786-.262 1.834-1.048 2.882-1.572 0 0 .262-.262 0-.262-1.048-2.619-1.048-4.715-.262-5.239l2.882-1.572c1.31-.786 4.453 2.358 7.073 6.811 2.62 4.454 3.668 8.646 2.358 9.432l-2.882 1.572c-.785.524-2.62-.786-4.453-2.882 0 0-.262-.262-.262 0-.786.524-2.096 1.31-2.882 1.572-.262.262-.524.524-.524.786 0 1.834-.524 8.122-6.55 11.528-8.122 4.716-14.672 1.834-18.078 3.93-1.571 1.048-3.93 4.454-5.501 6.288-1.31 1.571-3.668 0-6.812-5.502l-.262-.262c0-.262-.262-.262-.262-.262-3.144-5.502-3.144-8.384-1.31-8.646 2.358-1.31 6.812-1.572 8.384-2.358z" stroke="#fff" stroke-width=".5" stroke-miterlimit="10"/><path d="M222.029 200.545c-5.24 0-8.384-.786-9.432-2.358v-3.668c0-.262.262-.786.524-1.048 1.048-.786 2.358-1.31 4.192-1.572v-3.668c0-.262 0-.262-.262-.262-3.93-2.62-6.288-5.764-6.812-9.694-.524-4.716.524-9.17 3.144-13.623 1.572-2.62 2.358-4.716 2.358-6.288 0-1.048-.786-3.144-2.358-6.55-.524-1.31-.786-2.358.262-2.882 2.096-1.048 4.716-1.572 8.122-1.572m.262 53.709c-5.24 0-8.384.786-9.432 2.358v3.667c0 .262.262.786.524 1.048 1.048.786 2.358 1.31 4.192 1.572v3.668c0 .262 0 .262-.262.262-3.93 2.62-6.288 5.764-6.812 9.694-.524 4.716.524 9.17 3.144 13.624 1.572 2.619 2.358 4.715 2.358 6.287 0 1.048-.786 3.144-2.358 6.55-.524 1.31-.786 2.358.262 2.882 2.096 1.048 4.716 1.572 8.122 1.572" stroke="#fff" stroke-width=".5" stroke-miterlimit="22.926"/><path d="M354.073 85.792c3.668 1.834 4.454 9.17 12.576 13.623 6.026 3.406 11.789.786 13.099-.262.262-.262.524-.262.786 0 .786.262 1.834 1.048 2.882 1.572 0 0 .262.262 0 .262-1.048 2.62-1.048 4.716-.262 5.24l2.882 1.572c1.31.786 4.454-2.358 7.074-6.812 2.62-4.453 3.668-8.645 2.358-9.431l-2.882-1.572c-.786-.524-2.62.786-4.454 2.882 0 0-.262.262-.262 0-.786-.524-2.096-1.31-2.882-1.572-.262-.262-.524-.524-.524-.786 0-1.834-.524-8.122-6.55-11.528-8.121-4.716-14.671-1.834-18.077-3.93-1.572-1.048-3.93-4.454-5.502-6.288-1.31-1.572-3.668 0-6.812 5.502l-.262.262c0 .262-.262.262-.262.262-3.144 5.502-3.144 8.384-1.31 8.646 2.358 1.048 6.812 1.572 8.384 2.358zm-36.417-35.107c-3.668-1.834-4.454-9.17-12.576-13.624-6.026-3.406-11.789-.786-13.099.262-.262.262-.524.262-.786 0-.786-.262-1.834-1.048-2.882-1.572 0 0-.262-.262 0-.262 1.048-2.62 1.048-4.715.262-5.24l-2.882-1.572c-1.31-.785-4.454 2.358-7.074 6.812-2.62 4.454-3.668 8.646-2.358 9.432l2.882 1.572c.786.524 2.62-.786 4.454-2.882 0 0 .262-.262.262 0 .786.524 2.096 1.31 2.882 1.572.262.262.524.524.524.786 0 1.834.524 8.122 6.55 11.528 8.121 4.716 14.671 1.834 18.077 3.93 1.572 1.047 3.93 4.453 5.502 6.287 1.31 1.572 3.668 0 6.812-5.501l.262-.262c0-.262.262-.262.262-.262 3.144-5.502 3.144-8.384 1.31-8.646-2.62-1.31-6.812-1.572-8.384-2.358zm12.052 42.181c.262 4.192-5.502 8.383-5.764 17.815 0 7.074 5.24 10.48 6.812 11.266.262.262.524.524.524.786v3.144c0 .262 0 .262-.262.262-2.882.524-4.716 1.31-4.716 2.358v3.406c0 1.572 4.192 2.619 9.432 2.619s9.432-1.309 9.432-2.619v-3.406c0-1.048-1.834-1.834-4.716-2.358-.262 0-.262-.262-.262-.262v-3.144c0-.262.262-.524.524-.786 1.572-.786 6.812-4.454 6.812-11.266 0-9.432-5.764-13.623-5.764-17.815 0-1.834 1.834-5.764 2.62-7.86.786-1.834-1.834-3.144-8.384-3.144h-1.048c-6.55 0-8.908 1.572-8.384 3.144 1.31 2.096 3.144 6.026 3.144 7.86zm12.313-49.255c-.262-4.192 5.502-8.384 5.764-17.815 0-7.074-5.24-10.48-6.812-11.266-.262-.262-.524-.524-.524-.786V10.6c0-.262 0-.262.262-.262 2.882-.524 4.716-1.31 4.716-2.358V4.574c0-1.572-4.192-2.62-9.432-2.62s-9.431 1.31-9.431 2.62V7.98c0 1.048 1.833 1.834 4.715 2.358.262 0 .262.262.262.262v3.144c0 .262-.262.524-.524.786-1.572.786-6.811 4.454-6.811 11.266 0 9.431 5.763 13.623 5.763 17.815 0 1.834-1.834 5.764-2.619 7.86-.786 1.834 1.833 3.144 8.383 3.144h1.048c6.55 0 8.908-1.572 8.384-3.144-1.31-2.096-3.144-6.026-3.144-7.86z" stroke="#fff" stroke-width=".5" stroke-miterlimit="10"/><path d="M311.629 75.05c-3.406 2.096-9.955-.786-18.077 3.93-6.026 3.406-6.55 9.694-6.55 11.528 0 .262-.262.524-.524.786-.786.262-1.834 1.047-2.882 1.572h-.262c-1.834-2.096-3.406-3.406-4.454-2.882l-2.882 1.572c-1.31.785-.262 4.977 2.358 9.431 2.62 4.454 5.764 7.598 7.074 6.812l2.882-1.572c.786-.524.786-2.62-.262-5.24v-.262c.786-.524 2.096-1.31 2.882-1.572.262-.262.524-.262.786 0 1.572.786 7.074 3.668 13.1.262 8.121-4.716 8.907-11.79 12.575-13.623 1.572-.786 5.764-1.31 8.122-1.572 1.834-.262 1.834-3.144-1.31-8.646l-.262-.262c0-.262-.262-.262-.262-.262-3.144-5.502-5.764-7.074-6.812-5.502-1.31 1.048-3.93 4.716-5.24 5.502zm48.47-13.885c3.406-2.096 9.956.786 18.078-3.93 6.026-3.406 6.55-9.694 6.55-11.528 0-.262.262-.524.524-.786.786-.262 1.834-1.048 2.882-1.572h.262c1.834 2.096 3.406 3.406 4.453 2.882l2.882-1.572c1.31-.786.262-4.978-2.357-9.432-2.62-4.453-5.764-7.597-7.074-6.811l-2.882 1.572c-.786.524-.786 2.62.262 5.24v.261c-.786.524-2.096 1.31-2.882 1.572-.262.262-.524.262-.786 0-1.572-.786-7.074-3.668-13.1-.262-8.121 4.716-8.908 11.79-12.575 13.624-1.572.786-5.764 1.31-8.122 1.572-1.834.262-1.834 3.144 1.31 8.646l.262.262c0 .262.262.262.262.262 3.144 5.502 5.764 7.073 6.812 5.501 1.31-1.047 3.929-4.453 5.239-5.501zM239.845 18.46c3.667 1.834 4.453 9.17 12.575 13.623 6.026 3.406 11.79.786 13.1-.262.262-.262.524-.262.786 0 .786.262 1.834 1.048 2.882 1.572 0 0 .262.262 0 .262-1.048 2.62-1.048 4.716-.262 5.24l2.882 1.572c1.309.786 4.453-2.358 7.073-6.812 2.62-4.454 3.668-8.645 2.358-9.431l-2.882-1.572c-.786-.524-2.62.786-4.453 2.882 0 0-.263.262-.263 0-.785-.524-2.095-1.31-2.881-1.572-.262-.262-.524-.524-.524-.786 0-1.834-.524-8.122-6.55-11.528-8.122-4.716-14.672-1.834-18.078-3.93-1.572-1.048-3.93-4.454-5.501-6.288-1.31-1.572-3.668 0-6.812 5.502l-.262.262c0 .262-.262.262-.262.262-3.144 5.502-3.144 8.384-1.31 8.646 2.358 1.048 6.812 1.572 8.384 2.358zm193.087 98.771c-3.667-1.834-4.453-9.17-12.575-13.624-6.026-3.405-11.79-.786-13.1.262-.262.262-.524.262-.786 0-.786-.262-1.834-1.048-2.882-1.572 0 0-.262-.262 0-.262 1.048-2.62 1.048-4.715.262-5.24l-2.882-1.571c-1.31-.786-4.454 2.358-7.073 6.811-2.62 4.454-3.668 8.646-2.358 9.432l2.882 1.572c.786.524 2.619-.786 4.453-2.882 0 0 .262-.262.262 0 .786.524 2.096 1.31 2.882 1.572.262.262.524.524.524.786 0 1.834.524 8.122 6.55 11.528 8.122 4.716 14.672 1.834 18.078 3.93 1.572 1.048 3.93 4.454 5.501 6.288 1.31 1.571 3.668 0 6.812-5.502l.262-.262c0-.262.262-.262.262-.262 3.144-5.502 3.144-8.384 1.31-8.646-2.358-1.31-6.812-1.572-8.384-2.358zm-.262-98.771c-3.668 1.834-4.454 9.17-12.576 13.623-6.025 3.406-11.789.786-13.099-.262-.262-.262-.524-.262-.786 0-.786.262-1.834 1.048-2.882 1.572 0 0-.262.262 0 .262 1.048 2.62 1.048 4.716.262 5.24l-2.882 1.572c-1.31.786-4.454-2.358-7.074-6.812-2.62-4.454-3.668-8.645-2.358-9.431l2.882-1.572c.786-.524 2.62.786 4.454 2.882 0 0 .262.262.262 0 .786-.524 2.096-1.31 2.882-1.572.262-.262.524-.524.524-.786 0-1.834.524-8.122 6.55-11.528 8.122-4.716 14.671-1.834 18.077-3.93 1.572-1.048 3.93-4.454 5.502-6.288 1.31-1.572 3.668 0 6.812 5.502l.262.262c0 .262.262.262.262.262 3.144 5.502 3.144 8.384 1.31 8.646-2.62 1.31-7.074 1.572-8.384 2.358zm-193.349 98.771c3.668-1.834 4.454-9.17 12.576-13.624 6.025-3.405 11.789-.786 13.099.262.262.262.524.262.786 0 .786-.262 1.834-1.048 2.882-1.572 0 0 .262-.262 0-.262-1.048-2.62-1.048-4.715-.262-5.24l2.882-1.571c1.31-.786 4.454 2.358 7.074 6.811 2.62 4.454 3.668 8.646 2.358 9.432l-2.882 1.572c-.786.524-2.62-.786-4.454-2.882 0 0-.262-.262-.262 0-.786.524-2.096 1.31-2.882 1.572-.262.262-.524.524-.524.786 0 1.834-.524 8.122-6.55 11.528-8.122 4.716-14.671 1.834-18.077 3.93-1.572 1.048-3.93 4.454-5.502 6.288-1.31 1.571-3.668 0-6.812-5.502l-.262-.262c0-.262-.262-.262-.262-.262-3.144-5.502-3.144-8.384-1.31-8.646 2.358-1.048 6.812-1.572 8.384-2.358z" stroke="#fff" stroke-width=".5" stroke-miterlimit="10"/><path d="M220.981 67.19c5.24 0 8.384-.786 9.432-2.358v-3.667c0-.262-.262-.786-.524-1.048-1.048-.786-2.358-1.31-4.192-1.572v-3.668c0-.262 0-.262.262-.262 3.93-2.62 6.288-5.764 6.811-9.694.524-4.716-.523-9.17-3.143-13.624-1.572-2.62-2.358-4.716-2.358-6.288 0-1.047.786-3.143 2.358-6.55.524-1.31.786-2.357-.262-2.881-2.096-1.048-4.716-1.572-8.122-1.572m-.262 53.971c5.24 0 8.384.785 9.432 2.358v3.667c0 .262-.262.786-.524 1.048-1.048.786-2.358 1.31-4.192 1.572v3.668c0 .262 0 .262.262.262 3.93 2.62 6.288 5.764 6.811 9.694.524 4.716-.523 9.17-3.143 13.624-1.572 2.619-2.358 4.715-2.358 6.287 0 1.048.786 3.144 2.358 6.55.524 1.31.786 2.358-.262 2.882-2.096 1.048-4.716 1.572-8.122 1.572M451.01 67.19c-5.239 0-8.383-.786-9.431-2.358v-3.667c0-.262.262-.786.524-1.048 1.048-.786 2.358-1.31 4.192-1.572v-3.668c0-.262 0-.262-.262-.262-3.93-2.62-6.288-5.764-6.812-9.694-.524-4.716.524-9.17 3.144-13.624 1.572-2.62 2.358-4.716 2.358-6.288 0-1.047-.786-3.143-2.358-6.55-.524-1.31-.786-2.357.262-2.881 2.096-1.048 4.716-1.572 8.121-1.572m.262 53.971c-5.239 0-8.383.785-9.431 2.358v3.667c0 .262.262.786.524 1.048 1.048.786 2.358 1.31 4.192 1.572v3.668c0 .262 0 .262-.262.262-3.93 2.62-6.288 5.764-6.812 9.694-.524 4.716.524 9.17 3.144 13.624 1.572 2.619 2.358 4.715 2.358 6.287 0 1.048-.786 3.144-2.358 6.55-.524 1.31-.786 2.358.262 2.882 2.096 1.048 4.716 1.572 8.121 1.572" stroke="#fff" stroke-width=".5" stroke-miterlimit="22.926"/><path d="M354.073 219.146c3.668 1.834 4.454 9.17 12.576 13.624 6.026 3.406 11.789.786 13.099-.262.262-.262.524-.262.786 0 .786.262 1.834 1.048 2.882 1.572 0 0 .262.262 0 .262-1.048 2.62-1.048 4.715-.262 5.239l2.882 1.572c1.31.786 4.454-2.358 7.074-6.811 2.62-4.454 3.668-8.646 2.358-9.432l-2.882-1.572c-.786-.524-2.62.786-4.454 2.882 0 0-.262.262-.262 0-.786-.524-2.096-1.31-2.882-1.572-.262-.262-.524-.524-.524-.786 0-1.834-.524-8.122-6.55-11.528-8.121-4.716-14.671-1.834-18.077-3.93-1.572-1.048-3.93-4.453-5.502-6.287-1.31-1.572-3.668 0-6.812 5.501l-.262.262c0 .262-.262.262-.262.262-3.144 5.502-3.144 8.384-1.31 8.646 2.358 1.048 6.812 1.31 8.384 2.358zm-36.417-35.107c-3.668-1.834-4.454-9.17-12.576-13.623-6.026-3.406-11.789-.786-13.099.262-.262.262-.524.262-.786 0-.786-.262-1.834-1.048-2.882-1.572 0 0-.262-.262 0-.262 1.048-2.62 1.048-4.716.262-5.24l-2.882-1.572c-1.31-.786-4.454 2.358-7.074 6.812-2.62 4.453-3.668 8.645-2.358 9.431l2.882 1.572c.786.524 2.62-.786 4.454-2.882 0 0 .262-.262.262 0 .786.524 2.096 1.31 2.882 1.572.262.262.524.524.524.786 0 1.834.524 8.122 6.55 11.528 8.121 4.716 14.671 1.834 18.077 3.93 1.572 1.048 3.93 4.454 5.502 6.288 1.31 1.572 3.668 0 6.812-5.502l.262-.262c0-.262.262-.262.262-.262 3.144-5.502 3.144-8.384 1.31-8.646-2.62-1.31-6.812-1.572-8.384-2.358zm12.052 41.919c.262 4.191-5.502 8.383-5.764 17.815 0 7.074 5.24 10.48 6.812 11.266.262.262.524.524.524.786v3.144c0 .262 0 .262-.262.262-2.882.524-4.716 1.309-4.716 2.357v3.406c0 1.572 4.192 2.62 9.432 2.62s9.432-1.31 9.432-2.62v-3.406c0-1.048-1.834-1.833-4.716-2.357-.262 0-.262-.262-.262-.262v-3.144c0-.262.262-.524.524-.786 1.572-.786 6.812-4.454 6.812-11.266 0-9.432-5.764-13.624-5.764-17.815 0-1.834 1.834-5.764 2.62-7.86.786-1.834-1.834-3.144-8.384-3.144h-1.048c-6.55 0-8.908 1.572-8.384 3.144 1.31 2.096 3.144 6.288 3.144 7.86zm12.313-48.993c-.262-4.192 5.502-8.384 5.764-17.815 0-7.074-5.24-10.48-6.812-11.266-.262-.262-.524-.524-.524-.786v-3.144c0-.262 0-.262.262-.262 2.882-.524 4.716-1.31 4.716-2.358v-3.406c0-1.572-4.192-2.62-9.432-2.62s-9.431 1.31-9.431 2.62v3.406c0 1.048 1.833 1.834 4.715 2.358.262 0 .262.262.262.262v3.144c0 .262-.262.524-.524.786-1.572.786-6.811 4.454-6.811 11.266 0 9.431 5.763 13.623 5.763 17.815 0 1.834-1.834 5.764-2.619 7.86-.786 1.834 1.833 3.144 8.383 3.144h1.048c6.55 0 8.908-1.572 8.384-3.144-1.31-2.096-3.144-6.026-3.144-7.86z" stroke="#fff" stroke-width=".5" stroke-miterlimit="10"/><path d="M311.629 208.404c-3.406 2.096-9.955-.786-18.077 3.93-6.026 3.406-6.55 9.694-6.55 11.528 0 .262-.262.524-.524.786-.786.262-1.834 1.048-2.882 1.572h-.262c-1.834-2.096-3.406-3.406-4.454-2.882l-2.882 1.572c-1.31.786-.262 4.978 2.358 9.432 2.62 4.453 5.764 7.597 7.074 6.811l2.882-1.572c.786-.524.786-2.62-.262-5.239v-.262c.786-.524 2.096-1.31 2.882-1.572.262-.262.524-.262.786 0 1.572.786 7.074 3.667 13.1.262 8.121-4.716 8.907-11.79 12.575-13.624 1.572-.786 5.764-1.31 8.122-1.572 1.834-.262 1.834-3.144-1.31-8.646l-.262-.262c0-.262-.262-.262-.262-.262-3.144-5.502-5.764-7.074-6.812-5.502-1.31 1.048-3.93 4.716-5.24 5.502zm48.47-13.885c3.406-2.096 9.956.786 18.078-3.93 6.026-3.406 6.55-9.694 6.55-11.528 0-.262.262-.524.524-.786.786-.262 1.834-1.048 2.882-1.572h.262c1.834 2.096 3.406 3.406 4.453 2.882l2.882-1.572c1.31-.786.262-4.978-2.357-9.432-2.62-4.454-5.764-7.597-7.074-6.811l-2.882 1.572c-.786.523-.786 2.619.262 5.239v.262c-.786.524-2.096 1.31-2.882 1.572-.262.262-.524.262-.786 0-1.572-.786-7.074-3.668-13.1-.262-8.121 4.716-8.908 11.79-12.575 13.624-1.572.786-5.764 1.31-8.122 1.572-1.834.262-1.834 3.144 1.31 8.646l.262.262c0 .262.262.262.262.262 3.144 5.501 5.764 7.073 6.812 5.501 1.31-1.048 3.929-4.453 5.239-5.501zm-120.254-42.705c3.667 1.834 4.453 9.17 12.575 13.623 6.026 3.406 11.79.786 13.1-.262.262-.262.524-.262.786 0 .786.262 1.834 1.048 2.882 1.572 0 0 .262.262 0 .262-1.048 2.62-1.048 4.716-.262 5.24l2.882 1.572c1.309.786 4.453-2.358 7.073-6.812 2.62-4.454 3.668-8.645 2.358-9.431l-2.882-1.572c-.786-.524-2.62.786-4.453 2.882 0 0-.263.262-.263 0-.785-.524-2.095-1.31-2.881-1.572-.262-.262-.524-.524-.524-.786 0-1.834-.524-8.122-6.55-11.528-8.122-4.716-14.672-1.834-18.078-3.93-1.572-1.048-3.93-4.454-5.501-6.288-1.31-1.572-3.668 0-6.812 5.502l-.262.262c0 .262-.262.262-.262.262-3.144 5.502-3.144 8.384-1.31 8.646 2.358 1.048 6.812 1.31 8.384 2.358zm193.087 98.509c-3.667-1.834-4.453-9.17-12.575-13.624-6.026-3.406-11.79-.786-13.1.262-.262.262-.524.262-.786 0-.786-.262-1.834-1.048-2.882-1.572 0 0-.262-.262 0-.262 1.048-2.62 1.048-4.716.262-5.24l-2.882-1.572c-1.31-.785-4.454 2.358-7.073 6.812-2.62 4.454-3.668 8.646-2.358 9.432l2.882 1.572c.786.524 2.619-.786 4.453-2.882 0 0 .262-.262.262 0 .786.524 2.096 1.31 2.882 1.572.262.262.524.524.524.786 0 1.834.524 8.122 6.55 11.528 8.122 4.716 14.672 1.834 18.078 3.93 1.572 1.047 3.93 4.453 5.501 6.287 1.31 1.572 3.668 0 6.812-5.501l.262-.262c0-.262.262-.262.262-.262 3.144-5.502 3.144-8.384 1.31-8.646-2.358-1.048-6.812-1.31-8.384-2.358zm-.262-98.509c-3.668 1.834-4.454 9.17-12.576 13.623-6.025 3.406-11.789.786-13.099-.262-.262-.262-.524-.262-.786 0-.786.262-1.834 1.048-2.882 1.572 0 0-.262.262 0 .262 1.048 2.62 1.048 4.716.262 5.24l-2.882 1.572c-1.31.786-4.454-2.358-7.074-6.812-2.62-4.454-3.668-8.645-2.358-9.431l2.882-1.572c.786-.524 2.62.786 4.454 2.882 0 0 .262.262.262 0 .786-.524 2.096-1.31 2.882-1.572.262-.262.524-.524.524-.786 0-1.834.524-8.122 6.55-11.528 8.122-4.716 14.671-1.834 18.077-3.93 1.572-1.048 3.93-4.454 5.502-6.288 1.31-1.572 3.668 0 6.812 5.502l.262.262c0 .262.262.262.262.262 3.144 5.502 3.144 8.384 1.31 8.646-2.62 1.048-7.074 1.572-8.384 2.358zm-193.349 98.771c3.668-1.834 4.454-9.17 12.576-13.624 6.025-3.405 11.789-.786 13.099.262.262.262.524.262.786 0 .786-.262 1.834-1.048 2.882-1.572 0 0 .262-.262 0-.262-1.048-2.619-1.048-4.715-.262-5.239l2.882-1.572c1.31-.786 4.454 2.358 7.074 6.811 2.62 4.454 3.668 8.646 2.358 9.432l-2.882 1.572c-.786.524-2.62-.786-4.454-2.882 0 0-.262-.262-.262 0-.786.524-2.096 1.31-2.882 1.572-.262.262-.524.524-.524.786 0 1.834-.524 8.122-6.55 11.528-8.122 4.716-14.671 1.834-18.077 3.93-1.572 1.048-3.93 4.454-5.502 6.288-1.31 1.571-3.668 0-6.812-5.502l-.262-.262c0-.262-.262-.262-.262-.262-3.144-5.502-3.144-8.384-1.31-8.646 2.358-1.31 6.812-1.572 8.384-2.358z" stroke="#fff" stroke-width=".5" stroke-miterlimit="10"/><path d="M220.981 200.545c5.24 0 8.384-.786 9.432-2.358v-3.668c0-.262-.262-.786-.524-1.048-1.048-.786-2.358-1.31-4.192-1.572v-3.668c0-.262 0-.262.262-.262 3.93-2.62 6.288-5.764 6.811-9.694.524-4.716-.523-9.17-3.143-13.623-1.572-2.62-2.358-4.716-2.358-6.288 0-1.048.786-3.144 2.358-6.55.524-1.31.786-2.358-.262-2.882-2.096-1.048-4.716-1.572-8.122-1.572m-.262 53.709c5.24 0 8.384.786 9.432 2.358v3.667c0 .262-.262.786-.524 1.048-1.048.786-2.358 1.31-4.192 1.572v3.668c0 .262 0 .262.262.262 3.93 2.62 6.288 5.764 6.811 9.694.524 4.716-.523 9.17-3.143 13.624-1.572 2.619-2.358 4.715-2.358 6.287 0 1.048.786 3.144 2.358 6.55.524 1.31.786 2.358-.262 2.882-2.096 1.048-4.716 1.572-8.122 1.572m229.767-53.708c-5.239 0-8.383-.786-9.431-2.358v-3.668c0-.262.262-.786.524-1.048 1.048-.786 2.358-1.31 4.192-1.572v-3.668c0-.262 0-.262-.262-.262-3.93-2.62-6.288-5.764-6.812-9.694-.524-4.716.524-9.17 3.144-13.623 1.572-2.62 2.358-4.716 2.358-6.288 0-1.048-.786-3.144-2.358-6.55-.524-1.31-.786-2.358.262-2.882 2.096-1.048 4.716-1.572 8.121-1.572m.262 53.709c-5.239 0-8.383.786-9.431 2.358v3.667c0 .262.262.786.524 1.048 1.048.786 2.358 1.31 4.192 1.572v3.668c0 .262 0 .262-.262.262-3.93 2.62-6.288 5.764-6.812 9.694-.524 4.716.524 9.17 3.144 13.624 1.572 2.619 2.358 4.715 2.358 6.287 0 1.048-.786 3.144-2.358 6.55-.524 1.31-.786 2.358.262 2.882 2.096 1.048 4.716 1.572 8.121 1.572" stroke="#fff" stroke-width=".5" stroke-miterlimit="22.926"/><path d="M1385.6 18.46c3.67 1.834 4.46 9.17 12.58 13.623 6.02 3.406 11.79.786 13.1-.262.26-.262.52-.262.78 0 .79.262 1.84 1.048 2.88 1.572 0 0 .27.262 0 .262-1.04 2.62-1.04 4.716-.26 5.24l2.88 1.572c1.31.786 4.46-2.358 7.08-6.812 2.62-4.454 3.67-8.645 2.36-9.431l-2.89-1.572c-.78-.524-2.62.786-4.45 2.882 0 0-.26.262-.26 0-.79-.524-2.1-1.31-2.88-1.572-.27-.262-.53-.524-.53-.786 0-1.834-.52-8.122-6.55-11.528-8.12-4.716-14.67-1.834-18.07-3.93-1.58-1.048-3.93-4.454-5.51-6.288-1.31-1.572-3.66 0-6.81 5.502l-.26.262c0 .262-.26.262-.26.262-3.15 5.502-3.15 8.384-1.31 8.646 2.36 1.048 6.81 1.572 8.38 2.358zm-.52 98.771c3.67-1.834 4.45-9.17 12.57-13.624 6.03-3.405 11.79-.786 13.1.262.27.262.53.262.79 0 .79-.262 1.83-1.048 2.88-1.572 0 0 .26-.262 0-.262-1.05-2.62-1.05-4.715-.26-5.24l2.88-1.571c1.31-.786 4.45 2.358 7.07 6.811 2.62 4.454 3.67 8.646 2.36 9.432l-2.88 1.572c-.79.524-2.62-.786-4.45-2.882 0 0-.26-.262-.26 0-.79.524-2.1 1.31-2.89 1.572-.26.262-.52.524-.52.786 0 1.834-.52 8.122-6.55 11.528-8.12 4.716-14.67 1.834-18.08 3.93-1.57 1.048-3.93 4.454-5.5 6.288-1.31 1.571-3.67 0-6.81-5.502l-.26-.262c0-.262-.27-.262-.27-.262-3.14-5.502-3.14-8.384-1.31-8.646 2.36-1.048 6.82-1.572 8.39-2.358z" stroke="#fff" stroke-width=".5" stroke-miterlimit="10"/><path d="M1367 67.19c5.24 0 8.38-.786 9.43-2.358v-3.667c0-.262-.26-.786-.52-1.048-1.05-.786-2.36-1.31-4.19-1.572v-3.668c0-.262 0-.262.26-.262 3.93-2.62 6.29-5.764 6.81-9.694.52-4.716-.52-9.17-3.14-13.624-1.58-2.62-2.36-4.716-2.36-6.288 0-1.047.78-3.143 2.36-6.55.52-1.31.78-2.357-.27-2.881-2.09-1.048-4.71-1.572-8.12-1.572m-.26 53.971c5.24 0 8.38.785 9.43 2.358v3.667c0 .262-.26.786-.52 1.048-1.05.786-2.36 1.31-4.19 1.572v3.668c0 .262 0 .262.26.262 3.93 2.62 6.29 5.764 6.81 9.694.52 4.716-.52 9.17-3.14 13.624-1.58 2.619-2.36 4.715-2.36 6.287 0 1.048.78 3.144 2.36 6.55.52 1.31.78 2.358-.27 2.882-2.09 1.048-4.71 1.572-8.12 1.572" stroke="#fff" stroke-width=".5" stroke-miterlimit="22.926"/><path d="M1385.6 151.814c3.67 1.834 4.46 9.17 12.58 13.623 6.02 3.406 11.79.786 13.1-.262.26-.262.52-.262.78 0 .79.262 1.84 1.048 2.88 1.572 0 0 .27.262 0 .262-1.04 2.62-1.04 4.716-.26 5.24l2.88 1.572c1.31.786 4.46-2.358 7.08-6.812 2.62-4.454 3.67-8.645 2.36-9.431l-2.89-1.572c-.78-.524-2.62.786-4.45 2.882 0 0-.26.262-.26 0-.79-.524-2.1-1.31-2.88-1.572-.27-.262-.53-.524-.53-.786 0-1.834-.52-8.122-6.55-11.528-8.12-4.716-14.67-1.834-18.07-3.93-1.58-1.048-3.93-4.454-5.51-6.288-1.31-1.572-3.66 0-6.81 5.502l-.26.262c0 .262-.26.262-.26.262-3.15 5.502-3.15 8.384-1.31 8.646 2.36 1.048 6.81 1.31 8.38 2.358zm-.52 98.771c3.67-1.834 4.45-9.17 12.57-13.624 6.03-3.405 11.79-.786 13.1.262.27.262.53.262.79 0 .79-.262 1.83-1.048 2.88-1.572 0 0 .26-.262 0-.262-1.05-2.619-1.05-4.715-.26-5.239l2.88-1.572c1.31-.786 4.45 2.358 7.07 6.811 2.62 4.454 3.67 8.646 2.36 9.432l-2.88 1.572c-.79.524-2.62-.786-4.45-2.882 0 0-.26-.262-.26 0-.79.524-2.1 1.31-2.89 1.572-.26.262-.52.524-.52.786 0 1.834-.52 8.122-6.55 11.528-8.12 4.716-14.67 1.834-18.08 3.93-1.57 1.048-3.93 4.454-5.5 6.288-1.31 1.571-3.67 0-6.81-5.502l-.26-.262c0-.262-.27-.262-.27-.262-3.14-5.502-3.14-8.384-1.31-8.646 2.36-1.31 6.82-1.572 8.39-2.358z" stroke="#fff" stroke-width=".5" stroke-miterlimit="10"/><path d="M1367 200.545c5.24 0 8.38-.786 9.43-2.358v-3.668c0-.262-.26-.786-.52-1.048-1.05-.786-2.36-1.31-4.19-1.572v-3.668c0-.262 0-.262.26-.262 3.93-2.62 6.29-5.764 6.81-9.694.52-4.716-.52-9.17-3.14-13.623-1.58-2.62-2.36-4.716-2.36-6.288 0-1.048.78-3.144 2.36-6.55.52-1.31.78-2.358-.27-2.882-2.09-1.048-4.71-1.572-8.12-1.572m-.26 53.709c5.24 0 8.38.786 9.43 2.358v3.667c0 .262-.26.786-.52 1.048-1.05.786-2.36 1.31-4.19 1.572v3.668c0 .262 0 .262.26.262 3.93 2.62 6.29 5.764 6.81 9.694.52 4.716-.52 9.17-3.14 13.624-1.58 2.619-2.36 4.715-2.36 6.287 0 1.048.78 3.144 2.36 6.55.52 1.31.78 2.358-.27 2.882-2.09 1.048-4.71 1.572-8.12 1.572" stroke="#fff" stroke-width=".5" stroke-miterlimit="22.926"/><path d="M583.054 85.792c3.668 1.834 4.454 9.17 12.576 13.623 6.026 3.406 11.79.786 13.1-.262.262-.262.524-.262.786 0 .786.262 1.833 1.048 2.881 1.572 0 0 .262.262 0 .262-1.048 2.62-1.047 4.716-.262 5.24l2.882 1.572c1.31.786 4.454-2.358 7.074-6.812 2.62-4.453 3.668-8.645 2.358-9.431l-2.882-1.572c-.786-.524-2.62.786-4.454 2.882 0 0-.262.262-.262 0-.786-.524-2.096-1.31-2.882-1.572-.262-.262-.524-.524-.524-.786 0-1.834-.524-8.122-6.549-11.528-8.122-4.716-14.672-1.834-18.078-3.93-1.572-1.048-3.93-4.454-5.502-6.288-1.31-1.572-3.668 0-6.812 5.502l-.261.262c0 .262-.262.262-.262.262-3.144 5.502-3.144 8.384-1.31 8.646 2.358 1.048 6.811 1.572 8.383 2.358zm-36.417-35.107c-3.668-1.834-4.454-9.17-12.575-13.624-6.026-3.406-11.79-.786-13.1.262-.262.262-.524.262-.786 0-.786-.262-1.834-1.048-2.882-1.572 0 0-.262-.262 0-.262 1.048-2.62 1.048-4.715.262-5.24l-2.882-1.572c-1.31-.785-4.454 2.358-7.074 6.812-2.62 4.454-3.668 8.646-2.358 9.432l2.882 1.572c.786.524 2.62-.786 4.454-2.882 0 0 .262-.262.262 0 .786.524 2.096 1.31 2.882 1.572.262.262.524.524.524.786 0 1.834.524 8.122 6.55 11.528 8.122 4.716 14.671 1.834 18.077 3.93 1.572 1.047 3.93 4.453 5.502 6.287 1.31 1.572 3.668 0 6.812-5.501l.262-.262c0-.262.262-.262.262-.262 3.144-5.502 3.144-8.384 1.31-8.646-2.62-1.31-6.812-1.572-8.384-2.358zm12.051 42.181c.262 4.192-5.502 8.383-5.764 17.815 0 7.074 5.24 10.48 6.812 11.266.262.262.524.524.524.786v3.144c0 .262 0 .262-.262.262-2.882.524-4.716 1.31-4.716 2.358v3.406c0 1.572 4.192 2.619 9.432 2.619s9.432-1.309 9.432-2.619v-3.406c0-1.048-1.834-1.834-4.716-2.358-.262 0-.262-.262-.262-.262v-3.144c0-.262.262-.524.524-.786 1.572-.786 6.811-4.454 6.811-11.266 0-9.432-5.763-13.623-5.763-17.815 0-1.834 1.834-5.764 2.62-7.86.786-1.834-1.834-3.144-8.384-3.144h-1.048c-6.55 0-8.908 1.572-8.384 3.144 1.048 2.096 2.882 6.026 3.144 7.86zm12.052-49.255c-.262-4.192 5.501-8.384 5.763-17.815 0-7.074-5.239-10.48-6.811-11.266-.262-.262-.524-.524-.524-.786V10.6c0-.262 0-.262.262-.262 2.882-.524 4.716-1.31 4.716-2.358V4.574c0-1.572-4.192-2.62-9.432-2.62s-9.432 1.31-9.432 2.62V7.98c0 1.048 1.834 1.834 4.716 2.358.262 0 .262.262.262.262v3.144c0 .262-.262.524-.524.786-1.572.786-6.812 4.454-6.812 11.266 0 9.431 5.764 13.623 5.764 17.815 0 1.834-1.834 5.764-2.62 7.86-.786 1.834 1.834 3.144 8.384 3.144h1.048c6.55 0 8.907-1.572 8.384-3.144-1.048-2.096-2.882-6.026-3.144-7.86zM540.349 75.05c-3.406 2.096-9.956-.786-18.077 3.93-6.026 3.406-6.55 9.694-6.55 11.528 0 .262-.262.524-.524.786-.786.262-1.834 1.047-2.882 1.572h-.262c-1.834-2.096-3.406-3.406-4.454-2.882l-2.882 1.572c-1.31.785-.262 4.977 2.358 9.431 2.62 4.454 5.764 7.598 7.074 6.812l2.882-1.572c.786-.524.786-2.62-.262-5.24v-.262c.786-.524 2.096-1.31 2.882-1.572.262-.262.524-.262.786 0 1.572.786 7.073 3.668 13.099.262 8.122-4.716 8.908-11.79 12.576-13.623 1.572-.786 5.764-1.31 8.122-1.572 1.834-.262 1.834-3.144-1.31-8.646l-.262-.262c0-.262-.262-.262-.262-.262-3.144-5.502-5.764-7.074-6.812-5.502-1.31 1.048-3.668 4.716-5.24 5.502zm48.732-13.885c3.406-2.096 9.955.786 18.077-3.93 6.026-3.406 6.55-9.694 6.55-11.528 0-.262.262-.524.524-.786.786-.262 1.834-1.048 2.882-1.572h.262c1.834 2.096 3.406 3.406 4.454 2.882l2.882-1.572c1.309-.786.261-4.978-2.358-9.432-2.62-4.453-5.764-7.597-7.074-6.811l-2.882 1.572c-.786.524-.786 2.62.262 5.24v.261c-.786.524-2.096 1.31-2.882 1.572-.262.262-.524.262-.786 0-1.572-.786-7.074-3.668-13.1-.262-8.121 4.716-8.907 11.79-12.575 13.624-1.572.786-5.764 1.31-8.122 1.572-1.834.262-1.834 3.144 1.31 8.646l.262.262c0 .262.262.262.262.262 3.144 5.502 5.764 7.073 6.812 5.501 1.31-1.047 3.668-4.453 5.24-5.501zM468.563 18.46c3.668 1.834 4.454 9.17 12.576 13.623 6.026 3.406 11.79.786 13.099-.262.262-.262.524-.262.786 0 .786.262 1.834 1.048 2.882 1.572 0 0 .262.262 0 .262-1.048 2.62-1.048 4.716-.262 5.24l2.882 1.572c1.31.786 4.454-2.358 7.074-6.812 2.62-4.454 3.668-8.645 2.358-9.431l-2.882-1.572c-.786-.524-2.62.786-4.454 2.882 0 0-.262.262-.262 0-.786-.524-2.096-1.31-2.882-1.572-.262-.262-.524-.524-.524-.786 0-1.834-.524-8.122-6.55-11.528-8.121-4.716-14.671-1.834-18.077-3.93-1.572-1.048-3.93-4.454-5.502-6.288-1.31-1.572-3.668 0-6.812 5.502l-.262.262c0 .262-.262.262-.262.262-3.143 5.502-3.143 8.384-1.31 8.646 2.62 1.048 6.812 1.572 8.384 2.358zm193.351 98.771c-3.668-1.834-4.454-9.17-12.576-13.624-6.025-3.405-11.789-.786-13.099.262-.262.262-.524.262-.786 0-.786-.262-1.834-1.048-2.882-1.572 0 0-.262-.262 0-.262 1.048-2.62 1.048-4.715.262-5.24l-2.882-1.571c-1.31-.786-4.454 2.358-7.074 6.811-2.62 4.454-3.668 8.646-2.358 9.432l2.882 1.572c.786.524 2.62-.786 4.454-2.882 0 0 .262-.262.262 0 .786.524 2.096 1.31 2.882 1.572.262.262.524.524.524.786 0 1.834.524 8.122 6.55 11.528 8.121 4.716 14.671 1.834 18.077 3.93 1.572 1.048 3.93 4.454 5.502 6.288 1.31 1.571 3.668 0 6.812-5.502l.262-.262c0-.262.262-.262.262-.262 3.144-5.502 3.144-8.384 1.31-8.646-2.358-1.31-6.812-1.572-8.384-2.358zm-.524-98.771c-3.668 1.834-4.454 9.17-12.576 13.623-6.026 3.406-11.79.786-13.1-.262-.262-.262-.523-.262-.785 0-.786.262-1.835 1.048-2.882 1.572 0 0-.262.262 0 .262 1.047 2.62 1.048 4.716.262 5.24l-2.882 1.572c-1.31.786-4.454-2.358-7.074-6.812-2.62-4.454-3.668-8.645-2.358-9.431l2.882-1.572c.786-.524 2.62.786 4.454 2.882 0 0 .262.262.262 0 .786-.524 2.096-1.31 2.882-1.572.262-.262.524-.524.524-.786 0-1.834.524-8.122 6.549-11.528 8.122-4.716 14.672-1.834 18.078-3.93 1.572-1.048 3.93-4.454 5.502-6.288 1.31-1.572 3.668 0 6.812 5.502l.261.262c0 .262.263.262.263.262 3.143 5.502 3.143 8.384 1.309 8.646-2.357 1.31-6.811 1.572-8.383 2.358zm-193.35 98.771c3.668-1.834 4.454-9.17 12.575-13.624 6.026-3.405 11.79-.786 13.1.262.262.262.524.262.786 0 .786-.262 1.834-1.048 2.882-1.572 0 0 .262-.262 0-.262-1.048-2.62-1.048-4.715-.262-5.24l2.882-1.571c1.31-.786 4.454 2.358 7.074 6.811 2.619 4.454 3.667 8.646 2.358 9.432l-2.882 1.572c-.786.524-2.62-.786-4.454-2.882 0 0-.262-.262-.262 0-.786.524-2.096 1.31-2.882 1.572-.262.262-.524.524-.524.786 0 1.834-.524 8.122-6.55 11.528-8.122 4.716-14.671 1.834-18.077 3.93-1.572 1.048-3.93 4.454-5.502 6.288-1.31 1.571-3.668 0-6.812-5.502l-.262-.262c0-.262-.262-.262-.262-.262-3.144-5.502-3.144-8.384-1.31-8.646 2.62-1.048 6.812-1.572 8.384-2.358z" stroke="#fff" stroke-width=".5" stroke-miterlimit="10"/><path d="M449.962 67.19c5.24 0 8.384-.786 9.432-2.358v-3.667c0-.262-.262-.786-.524-1.048-1.048-.786-2.358-1.31-4.192-1.572v-3.668c0-.262 0-.262.262-.262 3.93-2.62 6.288-5.764 6.812-9.694.524-4.716-.524-9.17-3.144-13.624-1.572-2.62-2.358-4.716-2.358-6.288 0-1.047.786-3.143 2.358-6.55.524-1.31.786-2.357-.262-2.881-2.096-1.048-4.716-1.572-8.122-1.572m-.262 53.971c5.24 0 8.384.785 9.432 2.358v3.667c0 .262-.262.786-.524 1.048-1.048.786-2.358 1.31-4.192 1.572v3.668c0 .262 0 .262.262.262 3.93 2.62 6.288 5.764 6.812 9.694.524 4.716-.524 9.17-3.144 13.624-1.572 2.619-2.358 4.715-2.358 6.287 0 1.048.786 3.144 2.358 6.55.524 1.31.786 2.358-.262 2.882-2.096 1.048-4.716 1.572-8.122 1.572M679.73 67.19c-5.24 0-8.384-.786-9.432-2.358v-3.667c0-.262.262-.786.524-1.048 1.048-.786 2.358-1.31 4.192-1.572v-3.668c0-.262 0-.262-.262-.262-3.93-2.62-6.288-5.764-6.812-9.694-.524-4.716.524-9.17 3.144-13.624 1.572-2.62 2.358-4.716 2.358-6.288 0-1.047-.786-3.143-2.358-6.55-.524-1.31-.786-2.357.262-2.881 2.096-1.048 4.716-1.572 8.122-1.572m.262 53.971c-5.24 0-8.384.785-9.432 2.358v3.667c0 .262.262.786.524 1.048 1.048.786 2.358 1.31 4.192 1.572v3.668c0 .262 0 .262-.262.262-3.93 2.62-6.288 5.764-6.812 9.694-.524 4.716.524 9.17 3.144 13.624 1.572 2.619 2.358 4.715 2.358 6.287 0 1.048-.786 3.144-2.358 6.55-.524 1.31-.786 2.358.262 2.882 2.096 1.048 4.716 1.572 8.122 1.572" stroke="#fff" stroke-width=".5" stroke-miterlimit="22.926"/><path d="M583.054 219.146c3.668 1.834 4.454 9.17 12.576 13.624 6.026 3.406 11.79.786 13.1-.262.262-.262.524-.262.786 0 .786.262 1.833 1.048 2.881 1.572 0 0 .262.262 0 .262-1.048 2.62-1.047 4.715-.262 5.239l2.882 1.572c1.31.786 4.454-2.358 7.074-6.811 2.62-4.454 3.668-8.646 2.358-9.432l-2.882-1.572c-.786-.524-2.62.786-4.454 2.882 0 0-.262.262-.262 0-.786-.524-2.096-1.31-2.882-1.572-.262-.262-.524-.524-.524-.786 0-1.834-.524-8.122-6.549-11.528-8.122-4.716-14.672-1.834-18.078-3.93-1.572-1.048-3.93-4.453-5.502-6.287-1.31-1.572-3.668 0-6.812 5.501l-.261.262c0 .262-.262.262-.262.262-3.144 5.502-3.144 8.384-1.31 8.646 2.358 1.048 6.811 1.31 8.383 2.358zm-36.417-35.107c-3.668-1.834-4.454-9.17-12.575-13.623-6.026-3.406-11.79-.786-13.1.262-.262.262-.524.262-.786 0-.786-.262-1.834-1.048-2.882-1.572 0 0-.262-.262 0-.262 1.048-2.62 1.048-4.716.262-5.24l-2.882-1.572c-1.31-.786-4.454 2.358-7.074 6.812-2.62 4.453-3.668 8.645-2.358 9.431l2.882 1.572c.786.524 2.62-.786 4.454-2.882 0 0 .262-.262.262 0 .786.524 2.096 1.31 2.882 1.572.262.262.524.524.524.786 0 1.834.524 8.122 6.55 11.528 8.122 4.716 14.671 1.834 18.077 3.93 1.572 1.048 3.93 4.454 5.502 6.288 1.31 1.572 3.668 0 6.812-5.502l.262-.262c0-.262.262-.262.262-.262 3.144-5.502 3.144-8.384 1.31-8.646-2.62-1.31-6.812-1.572-8.384-2.358zm12.051 41.919c.262 4.191-5.502 8.383-5.764 17.815 0 7.074 5.24 10.48 6.812 11.266.262.262.524.524.524.786v3.144c0 .262 0 .262-.262.262-2.882.524-4.716 1.309-4.716 2.357v3.406c0 1.572 4.192 2.62 9.432 2.62s9.432-1.31 9.432-2.62v-3.406c0-1.048-1.834-1.833-4.716-2.357-.262 0-.262-.262-.262-.262v-3.144c0-.262.262-.524.524-.786 1.572-.786 6.811-4.454 6.811-11.266 0-9.432-5.763-13.624-5.763-17.815 0-1.834 1.834-5.764 2.62-7.86.786-1.834-1.834-3.144-8.384-3.144h-1.048c-6.55 0-8.908 1.572-8.384 3.144 1.048 2.096 2.882 6.288 3.144 7.86zm12.052-48.993c-.262-4.192 5.501-8.384 5.763-17.815 0-7.074-5.239-10.48-6.811-11.266-.262-.262-.524-.524-.524-.786v-3.144c0-.262 0-.262.262-.262 2.882-.524 4.716-1.31 4.716-2.358v-3.406c0-1.572-4.192-2.62-9.432-2.62s-9.432 1.31-9.432 2.62v3.406c0 1.048 1.834 1.834 4.716 2.358.262 0 .262.262.262.262v3.144c0 .262-.262.524-.524.786-1.572.786-6.812 4.454-6.812 11.266 0 9.431 5.764 13.623 5.764 17.815 0 1.834-1.834 5.764-2.62 7.86-.786 1.834 1.834 3.144 8.384 3.144h1.048c6.55 0 8.907-1.572 8.384-3.144-1.048-2.096-2.882-6.026-3.144-7.86zm-30.391 31.439c-3.406 2.096-9.956-.786-18.077 3.93-6.026 3.406-6.55 9.694-6.55 11.528 0 .262-.262.524-.524.786-.786.262-1.834 1.048-2.882 1.572h-.262c-1.834-2.096-3.406-3.406-4.454-2.882l-2.882 1.572c-1.31.786-.262 4.978 2.358 9.432 2.62 4.453 5.764 7.597 7.074 6.811l2.882-1.572c.786-.524.786-2.62-.262-5.239v-.262c.786-.524 2.096-1.31 2.882-1.572.262-.262.524-.262.786 0 1.572.786 7.073 3.667 13.099.262 8.122-4.716 8.908-11.79 12.576-13.624 1.572-.786 5.764-1.31 8.122-1.572 1.834-.262 1.834-3.144-1.31-8.646l-.262-.262c0-.262-.262-.262-.262-.262-3.144-5.502-5.764-7.074-6.812-5.502-1.31 1.048-3.668 4.716-5.24 5.502zm48.732-13.885c3.406-2.096 9.955.786 18.077-3.93 6.026-3.406 6.55-9.694 6.55-11.528 0-.262.262-.524.524-.786.786-.262 1.834-1.048 2.882-1.572h.262c1.834 2.096 3.406 3.406 4.454 2.882l2.882-1.572c1.309-.786.261-4.978-2.358-9.432-2.62-4.454-5.764-7.597-7.074-6.811l-2.882 1.572c-.786.523-.786 2.619.262 5.239v.262c-.786.524-2.096 1.31-2.882 1.572-.262.262-.524.262-.786 0-1.572-.786-7.074-3.668-13.1-.262-8.121 4.716-8.907 11.79-12.575 13.624-1.572.786-5.764 1.31-8.122 1.572-1.834.262-1.834 3.144 1.31 8.646l.262.262c0 .262.262.262.262.262 3.144 5.501 5.764 7.073 6.812 5.501 1.31-1.048 3.668-4.453 5.24-5.501zm-120.518-42.705c3.668 1.834 4.454 9.17 12.576 13.623 6.026 3.406 11.79.786 13.099-.262.262-.262.524-.262.786 0 .786.262 1.834 1.048 2.882 1.572 0 0 .262.262 0 .262-1.048 2.62-1.048 4.716-.262 5.24l2.882 1.572c1.31.786 4.454-2.358 7.074-6.812 2.62-4.454 3.668-8.645 2.358-9.431l-2.882-1.572c-.786-.524-2.62.786-4.454 2.882 0 0-.262.262-.262 0-.786-.524-2.096-1.31-2.882-1.572-.262-.262-.524-.524-.524-.786 0-1.834-.524-8.122-6.55-11.528-8.121-4.716-14.671-1.834-18.077-3.93-1.572-1.048-3.93-4.454-5.502-6.288-1.31-1.572-3.668 0-6.812 5.502l-.262.262c0 .262-.262.262-.262.262-3.143 5.502-3.143 8.384-1.31 8.646 2.62 1.048 6.812 1.31 8.384 2.358zm193.351 98.509c-3.668-1.834-4.454-9.17-12.576-13.624-6.025-3.406-11.789-.786-13.099.262-.262.262-.524.262-.786 0-.786-.262-1.834-1.048-2.882-1.572 0 0-.262-.262 0-.262 1.048-2.62 1.048-4.716.262-5.24l-2.882-1.572c-1.31-.785-4.454 2.358-7.074 6.812-2.62 4.454-3.668 8.646-2.358 9.432l2.882 1.572c.786.524 2.62-.786 4.454-2.882 0 0 .262-.262.262 0 .786.524 2.096 1.31 2.882 1.572.262.262.524.524.524.786 0 1.834.524 8.122 6.55 11.528 8.121 4.716 14.671 1.834 18.077 3.93 1.572 1.047 3.93 4.453 5.502 6.287 1.31 1.572 3.668 0 6.812-5.501l.262-.262c0-.262.262-.262.262-.262 3.144-5.502 3.144-8.384 1.31-8.646-2.358-1.048-6.812-1.31-8.384-2.358zm-.524-98.509c-3.668 1.834-4.454 9.17-12.576 13.623-6.026 3.406-11.79.786-13.1-.262-.262-.262-.523-.262-.785 0-.786.262-1.835 1.048-2.882 1.572 0 0-.262.262 0 .262 1.047 2.62 1.048 4.716.262 5.24l-2.882 1.572c-1.31.786-4.454-2.358-7.074-6.812-2.62-4.454-3.668-8.645-2.358-9.431l2.882-1.572c.786-.524 2.62.786 4.454 2.882 0 0 .262.262.262 0 .786-.524 2.096-1.31 2.882-1.572.262-.262.524-.524.524-.786 0-1.834.524-8.122 6.549-11.528 8.122-4.716 14.672-1.834 18.078-3.93 1.572-1.048 3.93-4.454 5.502-6.288 1.31-1.572 3.668 0 6.812 5.502l.261.262c0 .262.263.262.263.262 3.143 5.502 3.143 8.384 1.309 8.646-2.357 1.048-6.811 1.572-8.383 2.358zm-193.35 98.771c3.668-1.834 4.454-9.17 12.575-13.624 6.026-3.405 11.79-.786 13.1.262.262.262.524.262.786 0 .786-.262 1.834-1.048 2.882-1.572 0 0 .262-.262 0-.262-1.048-2.619-1.048-4.715-.262-5.239l2.882-1.572c1.31-.786 4.454 2.358 7.074 6.811 2.619 4.454 3.667 8.646 2.358 9.432l-2.882 1.572c-.786.524-2.62-.786-4.454-2.882 0 0-.262-.262-.262 0-.786.524-2.096 1.31-2.882 1.572-.262.262-.524.524-.524.786 0 1.834-.524 8.122-6.55 11.528-8.122 4.716-14.671 1.834-18.077 3.93-1.572 1.048-3.93 4.454-5.502 6.288-1.31 1.571-3.668 0-6.812-5.502l-.262-.262c0-.262-.262-.262-.262-.262-3.144-5.502-3.144-8.384-1.31-8.646 2.62-1.31 6.812-1.572 8.384-2.358z" stroke="#fff" stroke-width=".5" stroke-miterlimit="10"/><path d="M449.962 200.545c5.24 0 8.384-.786 9.432-2.358v-3.668c0-.262-.262-.786-.524-1.048-1.048-.786-2.358-1.31-4.192-1.572v-3.668c0-.262 0-.262.262-.262 3.93-2.62 6.288-5.764 6.812-9.694.524-4.716-.524-9.17-3.144-13.623-1.572-2.62-2.358-4.716-2.358-6.288 0-1.048.786-3.144 2.358-6.55.524-1.31.786-2.358-.262-2.882-2.096-1.048-4.716-1.572-8.122-1.572m-.262 53.709c5.24 0 8.384.786 9.432 2.358v3.667c0 .262-.262.786-.524 1.048-1.048.786-2.358 1.31-4.192 1.572v3.668c0 .262 0 .262.262.262 3.93 2.62 6.288 5.764 6.812 9.694.524 4.716-.524 9.17-3.144 13.624-1.572 2.619-2.358 4.715-2.358 6.287 0 1.048.786 3.144 2.358 6.55.524 1.31.786 2.358-.262 2.882-2.096 1.048-4.716 1.572-8.122 1.572m229.506-53.708c-5.24 0-8.384-.786-9.432-2.358v-3.668c0-.262.262-.786.524-1.048 1.048-.786 2.358-1.31 4.192-1.572v-3.668c0-.262 0-.262-.262-.262-3.93-2.62-6.288-5.764-6.812-9.694-.524-4.716.524-9.17 3.144-13.623 1.572-2.62 2.358-4.716 2.358-6.288 0-1.048-.786-3.144-2.358-6.55-.524-1.31-.786-2.358.262-2.882 2.096-1.048 4.716-1.572 8.122-1.572m.262 53.709c-5.24 0-8.384.786-9.432 2.358v3.667c0 .262.262.786.524 1.048 1.048.786 2.358 1.31 4.192 1.572v3.668c0 .262 0 .262-.262.262-3.93 2.62-6.288 5.764-6.812 9.694-.524 4.716.524 9.17 3.144 13.624 1.572 2.619 2.358 4.715 2.358 6.287 0 1.048-.786 3.144-2.358 6.55-.524 1.31-.786 2.358.262 2.882 2.096 1.048 4.716 1.572 8.122 1.572" stroke="#fff" stroke-width=".5" stroke-miterlimit="22.926"/><path d="M811.773 85.792c3.668 1.834 4.454 9.17 12.576 13.623 6.025 3.406 11.789.786 13.099-.262.262-.262.524-.262.786 0 .786.262 1.834 1.048 2.882 1.572 0 0 .262.262 0 .262-1.048 2.62-1.048 4.716-.262 5.24l2.882 1.572c1.31.786 4.454-2.358 7.074-6.812 2.62-4.453 3.668-8.645 2.358-9.431l-2.882-1.572c-.786-.524-2.62.786-4.454 2.882 0 0-.262.262-.262 0-.786-.524-2.096-1.31-2.882-1.572-.262-.262-.524-.524-.524-.786 0-1.834-.524-8.122-6.55-11.528-8.122-4.716-14.671-1.834-18.077-3.93-1.572-1.048-3.93-4.454-5.502-6.288-1.31-1.572-3.668 0-6.812 5.502l-.262.262c0 .262-.262.262-.262.262-3.144 5.502-3.144 8.384-1.31 8.646 2.62 1.048 7.074 1.572 8.384 2.358zm-36.155-35.107c-3.668-1.834-4.454-9.17-12.575-13.624-6.026-3.406-11.79-.786-13.1.262-.262.262-.524.262-.786 0-.786-.262-1.834-1.048-2.882-1.572 0 0-.262-.262 0-.262 1.048-2.62 1.048-4.715.262-5.24l-2.882-1.572c-1.31-.785-4.454 2.358-7.074 6.812-2.62 4.454-3.668 8.646-2.358 9.432l2.882 1.572c.786.524 2.62-.786 4.454-2.882 0 0 .262-.262.262 0 .786.524 2.096 1.31 2.882 1.572.262.262.524.524.524.786 0 1.834.524 8.122 6.55 11.528 8.122 4.716 14.672 1.834 18.077 3.93 1.572 1.047 3.93 4.453 5.502 6.287 1.31 1.572 3.668 0 6.812-5.501l.262-.262c0-.262.262-.262.262-.262 3.144-5.502 3.144-8.384 1.31-8.646-2.62-1.31-7.074-1.572-8.384-2.358zm12.053 42.181c.262 4.192-5.502 8.383-5.764 17.815 0 7.074 5.24 10.48 6.812 11.266.262.262.524.524.524.786v3.144c0 .262 0 .262-.262.262-2.882.524-4.716 1.31-4.716 2.358v3.406c0 1.572 4.192 2.619 9.432 2.619 5.239 0 9.431-1.309 9.431-2.619v-3.406c0-1.048-1.834-1.834-4.716-2.358-.262 0-.261-.262-.261-.262v-3.144c0-.262.262-.524.524-.786 1.572-.786 6.811-4.454 6.811-11.266 0-9.432-5.764-13.623-5.764-17.815 0-1.834 1.834-5.764 2.62-7.86.786-1.834-1.834-3.144-8.383-3.144h-1.048c-6.55 0-8.908 1.572-8.384 3.144 1.048 2.096 2.882 6.026 3.144 7.86zm12.051-49.255c-.262-4.192 5.502-8.384 5.764-17.815 0-7.074-5.239-10.48-6.811-11.266-.262-.262-.524-.524-.524-.786V10.6c0-.262-.001-.262.261-.262 2.882-.524 4.716-1.31 4.716-2.358V4.574c0-1.572-4.192-2.62-9.431-2.62-5.24 0-9.432 1.31-9.432 2.62V7.98c0 1.048 1.834 1.834 4.716 2.358.262 0 .262.262.262.262v3.144c0 .262-.262.524-.524.786-1.572.786-6.812 4.454-6.812 11.266 0 9.431 5.764 13.623 5.764 17.815 0 1.834-1.834 5.764-2.62 7.86-.786 1.834 1.834 3.144 8.384 3.144h1.048c6.549 0 8.907-1.572 8.383-3.144-1.048-2.096-2.882-6.026-3.144-7.86zM769.331 75.05c-3.405 2.096-9.955-.786-18.077 3.93-6.026 3.406-6.55 9.694-6.55 11.528 0 .262-.262.524-.524.786-.786.262-1.834 1.047-2.882 1.572h-.262c-1.834-2.096-3.406-3.406-4.454-2.882l-2.882 1.572c-1.31.785-.262 4.977 2.358 9.431 2.62 4.454 5.764 7.598 7.074 6.812l2.882-1.572c.786-.524.786-2.62-.262-5.24v-.262c.786-.524 2.096-1.31 2.882-1.572.262-.262.524-.262.786 0 1.572.786 7.074 3.668 13.1.262 8.121-4.716 8.907-11.79 12.575-13.623 1.572-.786 5.764-1.31 8.122-1.572 1.834-.262 1.834-3.144-1.31-8.646l-.262-.262c0-.262-.262-.262-.262-.262-3.144-5.502-5.764-7.074-6.812-5.502-1.31 1.048-3.668 4.716-5.24 5.502zm48.731-13.885c3.406-2.096 9.955.786 18.077-3.93 6.026-3.406 6.55-9.694 6.55-11.528 0-.262.262-.524.524-.786.786-.262 1.834-1.048 2.882-1.572h.262c1.834 2.096 3.406 3.406 4.454 2.882l2.882-1.572c1.31-.786.262-4.978-2.358-9.432-2.62-4.453-5.764-7.597-7.074-6.811l-2.882 1.572c-.786.524-.786 2.62.262 5.24v.261c-.786.524-2.096 1.31-2.882 1.572-.262.262-.524.262-.786 0-1.572-.786-7.074-3.668-13.099-.262-8.122 4.716-8.908 11.79-12.576 13.624-1.572.786-5.764 1.31-8.122 1.572-1.834.262-1.834 3.144 1.31 8.646l.262.262c0 .262.262.262.262.262 3.144 5.502 5.764 7.073 6.812 5.501 1.31-1.047 3.668-4.453 5.24-5.501zM697.545 18.46c3.668 1.834 4.454 9.17 12.576 13.623 6.026 3.406 11.79.786 13.099-.262.262-.262.525-.262.787 0 .786.262 1.833 1.048 2.881 1.572 0 0 .262.262 0 .262-1.048 2.62-1.047 4.716-.261 5.24l2.881 1.572c1.31.786 4.454-2.358 7.074-6.812 2.62-4.454 3.668-8.645 2.358-9.431l-2.882-1.572c-.786-.524-2.62.786-4.454 2.882 0 0-.262.262-.262 0-.786-.524-2.096-1.31-2.882-1.572-.262-.262-.524-.524-.524-.786 0-1.834-.524-8.122-6.549-11.528-8.122-4.716-14.672-1.834-18.078-3.93-1.572-1.048-3.93-4.454-5.502-6.288-1.31-1.572-3.668 0-6.812 5.502l-.261.262c0 .262-.263.262-.263.262-3.143 5.502-3.143 8.384-1.31 8.646 2.62 1.048 6.812 1.572 8.384 2.358zm193.35 98.771c-3.667-1.834-4.453-9.17-12.575-13.624-6.026-3.405-11.79-.786-13.1.262-.262.262-.524.262-.786 0-.786-.262-1.834-1.048-2.882-1.572 0 0-.262-.262 0-.262 1.048-2.62 1.048-4.715.262-5.24l-2.882-1.571c-1.309-.786-4.453 2.358-7.073 6.811-2.62 4.454-3.668 8.646-2.358 9.432l2.882 1.572c.786.524 2.619-.786 4.453-2.882 0 0 .263-.262.263 0 .785.524 2.095 1.31 2.881 1.572.262.262.524.524.524.786 0 1.834.524 8.122 6.55 11.528 8.122 4.716 14.672 1.834 18.078 3.93 1.572 1.048 3.93 4.454 5.502 6.288 1.309 1.571 3.667 0 6.811-5.502l.262-.262c0-.262.262-.262.262-.262 3.144-5.502 3.144-8.384 1.31-8.646-2.358-1.31-6.812-1.572-8.384-2.358zm-.523-98.771c-3.668 1.834-4.454 9.17-12.576 13.623-6.025 3.406-11.789.786-13.099-.262-.262-.262-.524-.262-.786 0-.786.262-1.834 1.048-2.882 1.572 0 0-.262.262 0 .262 1.048 2.62 1.048 4.716.262 5.24l-2.882 1.572c-1.31.786-4.454-2.358-7.074-6.812-2.62-4.454-3.668-8.645-2.358-9.431l2.882-1.572c.786-.524 2.62.786 4.454 2.882 0 0 .262.262.262 0 .786-.524 2.096-1.31 2.882-1.572.262-.262.524-.524.524-.786 0-1.834.524-8.122 6.55-11.528 8.121-4.716 14.671-1.834 18.077-3.93 1.572-1.048 3.93-4.454 5.502-6.288 1.31-1.572 3.668 0 6.812 5.502l.262.262c0 .262.262.262.262.262 3.144 5.502 3.144 8.384 1.31 8.646-2.358 1.31-6.812 1.572-8.384 2.358zm-193.351 98.771c3.668-1.834 4.454-9.17 12.576-13.624 6.025-3.405 11.789-.786 13.099.262.262.262.524.262.786 0 .786-.262 1.834-1.048 2.882-1.572 0 0 .262-.262 0-.262-1.048-2.62-1.048-4.715-.262-5.24l2.882-1.571c1.31-.786 4.454 2.358 7.074 6.811 2.62 4.454 3.668 8.646 2.358 9.432l-2.882 1.572c-.786.524-2.62-.786-4.454-2.882 0 0-.262-.262-.262 0-.786.524-2.096 1.31-2.882 1.572-.262.262-.524.524-.524.786 0 1.834-.524 8.122-6.55 11.528-8.122 4.716-14.671 1.834-18.077 3.93-1.572 1.048-3.93 4.454-5.502 6.288-1.31 1.571-3.668 0-6.812-5.502l-.262-.262c0-.262-.262-.262-.262-.262-3.144-5.502-3.144-8.384-1.31-8.646 2.62-1.048 6.812-1.572 8.384-2.358z" stroke="#fff" stroke-width=".5" stroke-miterlimit="10"/><path d="M678.943 67.19c5.24 0 8.384-.786 9.432-2.358v-3.667c0-.262-.262-.786-.524-1.048-1.048-.786-2.358-1.31-4.192-1.572v-3.668c0-.262 0-.262.262-.262 3.93-2.62 6.288-5.764 6.812-9.694.524-4.716-.524-9.17-3.144-13.624-1.572-2.62-2.358-4.716-2.358-6.288 0-1.047.786-3.143 2.358-6.55.524-1.31.786-2.357-.262-2.881-2.096-1.048-4.716-1.572-8.122-1.572m-.262 53.971c5.24 0 8.384.785 9.432 2.358v3.667c0 .262-.262.786-.524 1.048-1.048.786-2.358 1.31-4.192 1.572v3.668c0 .262 0 .262.262.262 3.93 2.62 6.288 5.764 6.812 9.694.524 4.716-.524 9.17-3.144 13.624-1.572 2.619-2.358 4.715-2.358 6.287 0 1.048.786 3.144 2.358 6.55.524 1.31.786 2.358-.262 2.882-2.096 1.048-4.716 1.572-8.122 1.572M908.71 67.19c-5.24 0-8.384-.786-9.432-2.358v-3.667c0-.262.262-.786.524-1.048 1.048-.786 2.358-1.31 4.192-1.572v-3.668c0-.262 0-.262-.262-.262-3.93-2.62-6.288-5.764-6.812-9.694-.524-4.716.524-9.17 3.144-13.624 1.572-2.62 2.358-4.716 2.358-6.288 0-1.047-.786-3.143-2.358-6.55-.524-1.31-.786-2.357.262-2.881 2.096-1.048 4.716-1.572 8.122-1.572m.262 53.971c-5.24 0-8.384.785-9.432 2.358v3.667c0 .262.262.786.524 1.048 1.048.786 2.358 1.31 4.192 1.572v3.668c0 .262 0 .262-.262.262-3.93 2.62-6.288 5.764-6.812 9.694-.524 4.716.524 9.17 3.144 13.624 1.572 2.619 2.358 4.715 2.358 6.287 0 1.048-.786 3.144-2.358 6.55-.524 1.31-.786 2.358.262 2.882 2.096 1.048 4.716 1.572 8.122 1.572" stroke="#fff" stroke-width=".5" stroke-miterlimit="22.926"/><path d="M811.773 219.146c3.668 1.834 4.454 9.17 12.576 13.624 6.025 3.406 11.789.786 13.099-.262.262-.262.524-.262.786 0 .786.262 1.834 1.048 2.882 1.572 0 0 .262.262 0 .262-1.048 2.62-1.048 4.715-.262 5.239l2.882 1.572c1.31.786 4.454-2.358 7.074-6.811 2.62-4.454 3.668-8.646 2.358-9.432l-2.882-1.572c-.786-.524-2.62.786-4.454 2.882 0 0-.262.262-.262 0-.786-.524-2.096-1.31-2.882-1.572-.262-.262-.524-.524-.524-.786 0-1.834-.524-8.122-6.55-11.528-8.122-4.716-14.671-1.834-18.077-3.93-1.572-1.048-3.93-4.453-5.502-6.287-1.31-1.572-3.668 0-6.812 5.501l-.262.262c0 .262-.262.262-.262.262-3.144 5.502-3.144 8.384-1.31 8.646 2.62 1.048 7.074 1.31 8.384 2.358zm-36.155-35.107c-3.668-1.834-4.454-9.17-12.575-13.623-6.026-3.406-11.79-.786-13.1.262-.262.262-.524.262-.786 0-.786-.262-1.834-1.048-2.882-1.572 0 0-.262-.262 0-.262 1.048-2.62 1.048-4.716.262-5.24l-2.882-1.572c-1.31-.786-4.454 2.358-7.074 6.812-2.62 4.453-3.668 8.645-2.358 9.431l2.882 1.572c.786.524 2.62-.786 4.454-2.882 0 0 .262-.262.262 0 .786.524 2.096 1.31 2.882 1.572.262.262.524.524.524.786 0 1.834.524 8.122 6.55 11.528 8.122 4.716 14.672 1.834 18.077 3.93 1.572 1.048 3.93 4.454 5.502 6.288 1.31 1.572 3.668 0 6.812-5.502l.262-.262c0-.262.262-.262.262-.262 3.144-5.502 3.144-8.384 1.31-8.646-2.62-1.31-7.074-1.572-8.384-2.358zm12.053 41.919c.262 4.191-5.502 8.383-5.764 17.815 0 7.074 5.24 10.48 6.812 11.266.262.262.524.524.524.786v3.144c0 .262 0 .262-.262.262-2.882.524-4.716 1.309-4.716 2.357v3.406c0 1.572 4.192 2.62 9.432 2.62 5.239 0 9.431-1.31 9.431-2.62v-3.406c0-1.048-1.834-1.833-4.716-2.357-.262 0-.261-.262-.261-.262v-3.144c0-.262.262-.524.524-.786 1.572-.786 6.811-4.454 6.811-11.266 0-9.432-5.764-13.624-5.764-17.815 0-1.834 1.834-5.764 2.62-7.86.786-1.834-1.834-3.144-8.383-3.144h-1.048c-6.55 0-8.908 1.572-8.384 3.144 1.048 2.096 2.882 6.288 3.144 7.86zm12.051-48.993c-.262-4.192 5.502-8.384 5.764-17.815 0-7.074-5.239-10.48-6.811-11.266-.262-.262-.524-.524-.524-.786v-3.144c0-.262-.001-.262.261-.262 2.882-.524 4.716-1.31 4.716-2.358v-3.406c0-1.572-4.192-2.62-9.431-2.62-5.24 0-9.432 1.31-9.432 2.62v3.406c0 1.048 1.834 1.834 4.716 2.358.262 0 .262.262.262.262v3.144c0 .262-.262.524-.524.786-1.572.786-6.812 4.454-6.812 11.266 0 9.431 5.764 13.623 5.764 17.815 0 1.834-1.834 5.764-2.62 7.86-.786 1.834 1.834 3.144 8.384 3.144h1.048c6.549 0 8.907-1.572 8.383-3.144-1.048-2.096-2.882-6.026-3.144-7.86zm-30.391 31.439c-3.405 2.096-9.955-.786-18.077 3.93-6.026 3.406-6.55 9.694-6.55 11.528 0 .262-.262.524-.524.786-.786.262-1.834 1.048-2.882 1.572h-.262c-1.834-2.096-3.406-3.406-4.454-2.882l-2.882 1.572c-1.31.786-.262 4.978 2.358 9.432 2.62 4.453 5.764 7.597 7.074 6.811l2.882-1.572c.786-.524.786-2.62-.262-5.239v-.262c.786-.524 2.096-1.31 2.882-1.572.262-.262.524-.262.786 0 1.572.786 7.074 3.667 13.1.262 8.121-4.716 8.907-11.79 12.575-13.624 1.572-.786 5.764-1.31 8.122-1.572 1.834-.262 1.834-3.144-1.31-8.646l-.262-.262c0-.262-.262-.262-.262-.262-3.144-5.502-5.764-7.074-6.812-5.502-1.31 1.048-3.668 4.716-5.24 5.502zm48.731-13.885c3.406-2.096 9.955.786 18.077-3.93 6.026-3.406 6.55-9.694 6.55-11.528 0-.262.262-.524.524-.786.786-.262 1.834-1.048 2.882-1.572h.262c1.834 2.096 3.406 3.406 4.454 2.882l2.882-1.572c1.31-.786.262-4.978-2.358-9.432-2.62-4.454-5.764-7.597-7.074-6.811l-2.882 1.572c-.786.523-.786 2.619.262 5.239v.262c-.786.524-2.096 1.31-2.882 1.572-.262.262-.524.262-.786 0-1.572-.786-7.074-3.668-13.099-.262-8.122 4.716-8.908 11.79-12.576 13.624-1.572.786-5.764 1.31-8.122 1.572-1.834.262-1.834 3.144 1.31 8.646l.262.262c0 .262.262.262.262.262 3.144 5.501 5.764 7.073 6.812 5.501 1.31-1.048 3.668-4.453 5.24-5.501zm-120.517-42.705c3.668 1.834 4.454 9.17 12.576 13.623 6.026 3.406 11.79.786 13.099-.262.262-.262.525-.262.787 0 .786.262 1.833 1.048 2.881 1.572 0 0 .262.262 0 .262-1.048 2.62-1.047 4.716-.261 5.24l2.881 1.572c1.31.786 4.454-2.358 7.074-6.812 2.62-4.454 3.668-8.645 2.358-9.431l-2.882-1.572c-.786-.524-2.62.786-4.454 2.882 0 0-.262.262-.262 0-.786-.524-2.096-1.31-2.882-1.572-.262-.262-.524-.524-.524-.786 0-1.834-.524-8.122-6.549-11.528-8.122-4.716-14.672-1.834-18.078-3.93-1.572-1.048-3.93-4.454-5.502-6.288-1.31-1.572-3.668 0-6.812 5.502l-.261.262c0 .262-.263.262-.263.262-3.143 5.502-3.143 8.384-1.31 8.646 2.62 1.048 6.812 1.31 8.384 2.358zm193.35 98.509c-3.667-1.834-4.453-9.17-12.575-13.624-6.026-3.406-11.79-.786-13.1.262-.262.262-.524.262-.786 0-.786-.262-1.834-1.048-2.882-1.572 0 0-.262-.262 0-.262 1.048-2.62 1.048-4.716.262-5.24l-2.882-1.572c-1.309-.785-4.453 2.358-7.073 6.812-2.62 4.454-3.668 8.646-2.358 9.432l2.882 1.572c.786.524 2.619-.786 4.453-2.882 0 0 .263-.262.263 0 .785.524 2.095 1.31 2.881 1.572.262.262.524.524.524.786 0 1.834.524 8.122 6.55 11.528 8.122 4.716 14.672 1.834 18.078 3.93 1.572 1.047 3.93 4.453 5.502 6.287 1.309 1.572 3.667 0 6.811-5.501l.262-.262c0-.262.262-.262.262-.262 3.144-5.502 3.144-8.384 1.31-8.646-2.358-1.048-6.812-1.31-8.384-2.358zm-.523-98.509c-3.668 1.834-4.454 9.17-12.576 13.623-6.025 3.406-11.789.786-13.099-.262-.262-.262-.524-.262-.786 0-.786.262-1.834 1.048-2.882 1.572 0 0-.262.262 0 .262 1.048 2.62 1.048 4.716.262 5.24l-2.882 1.572c-1.31.786-4.454-2.358-7.074-6.812-2.62-4.454-3.668-8.645-2.358-9.431l2.882-1.572c.786-.524 2.62.786 4.454 2.882 0 0 .262.262.262 0 .786-.524 2.096-1.31 2.882-1.572.262-.262.524-.524.524-.786 0-1.834.524-8.122 6.55-11.528 8.121-4.716 14.671-1.834 18.077-3.93 1.572-1.048 3.93-4.454 5.502-6.288 1.31-1.572 3.668 0 6.812 5.502l.262.262c0 .262.262.262.262.262 3.144 5.502 3.144 8.384 1.31 8.646-2.358 1.048-6.812 1.572-8.384 2.358zm-193.351 98.771c3.668-1.834 4.454-9.17 12.576-13.624 6.025-3.405 11.789-.786 13.099.262.262.262.524.262.786 0 .786-.262 1.834-1.048 2.882-1.572 0 0 .262-.262 0-.262-1.048-2.619-1.048-4.715-.262-5.239l2.882-1.572c1.31-.786 4.454 2.358 7.074 6.811 2.62 4.454 3.668 8.646 2.358 9.432l-2.882 1.572c-.786.524-2.62-.786-4.454-2.882 0 0-.262-.262-.262 0-.786.524-2.096 1.31-2.882 1.572-.262.262-.524.524-.524.786 0 1.834-.524 8.122-6.55 11.528-8.122 4.716-14.671 1.834-18.077 3.93-1.572 1.048-3.93 4.454-5.502 6.288-1.31 1.571-3.668 0-6.812-5.502l-.262-.262c0-.262-.262-.262-.262-.262-3.144-5.502-3.144-8.384-1.31-8.646 2.62-1.31 6.812-1.572 8.384-2.358z" stroke="#fff" stroke-width=".5" stroke-miterlimit="10"/><path d="M678.943 200.545c5.24 0 8.384-.786 9.432-2.358v-3.668c0-.262-.262-.786-.524-1.048-1.048-.786-2.358-1.31-4.192-1.572v-3.668c0-.262 0-.262.262-.262 3.93-2.62 6.288-5.764 6.812-9.694.524-4.716-.524-9.17-3.144-13.623-1.572-2.62-2.358-4.716-2.358-6.288 0-1.048.786-3.144 2.358-6.55.524-1.31.786-2.358-.262-2.882-2.096-1.048-4.716-1.572-8.122-1.572m-.262 53.709c5.24 0 8.384.786 9.432 2.358v3.667c0 .262-.262.786-.524 1.048-1.048.786-2.358 1.31-4.192 1.572v3.668c0 .262 0 .262.262.262 3.93 2.62 6.288 5.764 6.812 9.694.524 4.716-.524 9.17-3.144 13.624-1.572 2.619-2.358 4.715-2.358 6.287 0 1.048.786 3.144 2.358 6.55.524 1.31.786 2.358-.262 2.882-2.096 1.048-4.716 1.572-8.122 1.572m229.505-53.708c-5.24 0-8.384-.786-9.432-2.358v-3.668c0-.262.262-.786.524-1.048 1.048-.786 2.358-1.31 4.192-1.572v-3.668c0-.262 0-.262-.262-.262-3.93-2.62-6.288-5.764-6.812-9.694-.524-4.716.524-9.17 3.144-13.623 1.572-2.62 2.358-4.716 2.358-6.288 0-1.048-.786-3.144-2.358-6.55-.524-1.31-.786-2.358.262-2.882 2.096-1.048 4.716-1.572 8.122-1.572m.262 53.709c-5.24 0-8.384.786-9.432 2.358v3.667c0 .262.262.786.524 1.048 1.048.786 2.358 1.31 4.192 1.572v3.668c0 .262 0 .262-.262.262-3.93 2.62-6.288 5.764-6.812 9.694-.524 4.716.524 9.17 3.144 13.624 1.572 2.619 2.358 4.715 2.358 6.287 0 1.048-.786 3.144-2.358 6.55-.524 1.31-.786 2.358.262 2.882 2.096 1.048 4.716 1.572 8.122 1.572" stroke="#fff" stroke-width=".5" stroke-miterlimit="22.926"/><path d="M1041.54 85.792c3.67 1.834 4.45 9.17 12.58 13.623 6.02 3.406 11.79.786 13.1-.262.26-.262.52-.262.78 0 .79.262 1.84 1.048 2.88 1.572 0 0 .27.262 0 .262-1.04 2.62-1.04 4.716-.26 5.24l2.88 1.572c1.31.786 4.46-2.358 7.08-6.812 2.62-4.453 3.66-8.645 2.35-9.431l-2.88-1.572c-.78-.524-2.62.786-4.45 2.882 0 0-.26.262-.26 0-.79-.524-2.1-1.31-2.88-1.572-.27-.262-.53-.524-.53-.786 0-1.834-.52-8.122-6.55-11.528-8.12-4.716-14.67-1.834-18.08-3.93-1.57-1.048-3.93-4.454-5.5-6.288-1.31-1.572-3.67 0-6.81 5.502l-.26.262c0 .262-.26.262-.26.262-3.15 5.502-3.15 8.384-1.31 8.646 2.62 1.048 6.81 1.572 8.38 2.358zm-36.42-35.107c-3.66-1.834-4.45-9.17-12.572-13.624-6.026-3.406-11.789-.786-13.099.262-.262.262-.524.262-.786 0-.786-.262-1.834-1.048-2.882-1.572 0 0-.262-.262 0-.262 1.048-2.62 1.048-4.715.262-5.24l-2.882-1.572c-1.31-.785-4.454 2.358-7.074 6.812-2.62 4.454-3.668 8.646-2.358 9.432l2.882 1.572c.786.524 2.62-.786 4.454-2.882 0 0 .262-.262.262 0 .786.524 2.096 1.31 2.882 1.572.262.262.524.524.524.786 0 1.834.524 8.122 6.549 11.528 8.122 4.716 14.672 1.834 18.078 3.93 1.57 1.047 3.93 4.453 5.5 6.287 1.31 1.572 3.67 0 6.81-5.501l.27-.262c0-.262.26-.262.26-.262 3.14-5.502 3.14-8.384 1.31-8.646-2.36-1.31-6.81-1.572-8.39-2.358zm12.06 42.181c.26 4.192-5.51 8.383-5.77 17.815 0 7.074 5.24 10.48 6.81 11.266.27.262.53.524.53.786v3.144c0 .262 0 .262-.26.262-2.89.524-4.72 1.31-4.72 2.358v3.406c0 1.572 4.19 2.619 9.43 2.619 5.24 0 9.43-1.309 9.43-2.619v-3.406c0-1.048-1.83-1.834-4.71-2.358-.26 0-.26-.262-.26-.262v-3.144c0-.262.26-.524.52-.786 1.57-.786 6.81-4.454 6.81-11.266 0-9.432-5.76-13.623-5.76-17.815 0-1.834 1.83-5.764 2.62-7.86.78-1.834-1.84-3.144-8.39-3.144h-1.04c-6.55 0-8.91 1.572-8.39 3.144 1.31 2.096 3.15 6.026 3.15 7.86zm12.31-49.255c-.26-4.192 5.5-8.384 5.76-17.815 0-7.074-5.24-10.48-6.81-11.266-.26-.262-.52-.524-.52-.786V10.6c0-.262 0-.262.26-.262 2.88-.524 4.72-1.31 4.72-2.358V4.574c0-1.572-4.2-2.62-9.44-2.62-5.24 0-9.43 1.31-9.43 2.62V7.98c0 1.048 1.84 1.834 4.72 2.358.26 0 .26.262.26.262v3.144c0 .262-.26.524-.52.786-1.58.786-6.82 4.454-6.82 11.266 0 9.431 5.77 13.623 5.77 17.815 0 1.834-1.84 5.764-2.62 7.86-.79 1.834 1.83 3.144 8.38 3.144h1.05c6.55 0 8.91-1.572 8.38-3.144-1.31-2.096-3.14-6.026-3.14-7.86z" stroke="#fff" stroke-width=".5" stroke-miterlimit="10"/><path d="M999.098 75.05c-3.406 2.096-9.956-.786-18.078 3.93-6.026 3.406-6.55 9.694-6.55 11.528 0 .262-.262.524-.524.786-.786.262-1.834 1.047-2.882 1.572h-.262c-1.834-2.096-3.405-3.406-4.453-2.882l-2.882 1.572c-1.31.785-.262 4.977 2.358 9.431 2.62 4.454 5.764 7.598 7.073 6.812l2.882-1.572c.786-.524.786-2.62-.262-5.24v-.262c.786-.524 2.096-1.31 2.882-1.572.262-.262.524-.262.786 0 1.572.786 7.074 3.668 13.1.262 8.124-4.716 8.904-11.79 12.574-13.623 1.57-.786 5.77-1.31 8.12-1.572 1.84-.262 1.84-3.144-1.31-8.646l-.26-.262c0-.262-.26-.262-.26-.262-3.14-5.502-5.76-7.074-6.81-5.502-1.31 1.048-3.67 4.716-5.242 5.502zm48.472-13.885c3.4-2.096 9.95.786 18.07-3.93 6.03-3.406 6.55-9.694 6.55-11.528 0-.262.27-.524.53-.786.78-.262 1.83-1.048 2.88-1.572h.26c1.84 2.096 3.41 3.406 4.46 2.882l2.88-1.572c1.31-.786.26-4.978-2.36-9.432-2.62-4.453-5.76-7.597-7.07-6.811l-2.89 1.572c-.78.524-.78 2.62.27 5.24v.261c-.79.524-2.1 1.31-2.89 1.572-.26.262-.52.262-.78 0-1.57-.786-7.08-3.668-13.1-.262-8.12 4.716-8.91 11.79-12.58 13.624-1.57.786-5.76 1.31-8.12 1.572-1.83.262-1.83 3.144 1.31 8.646l.26.262c0 .262.27.262.27.262 3.14 5.502 5.76 7.073 6.81 5.501 1.31-1.047 3.93-4.453 5.24-5.501zM927.312 18.46c3.668 1.834 4.454 9.17 12.576 13.623 6.026 3.406 11.79.786 13.1-.262.262-.262.523-.262.785 0 .786.262 1.835 1.048 2.882 1.572 0 0 .262.262 0 .262-1.047 2.62-1.048 4.716-.262 5.24l2.882 1.572c1.31.786 4.454-2.358 7.074-6.812 2.62-4.454 3.668-8.645 2.358-9.431l-2.882-1.572c-.786-.524-2.62.786-4.454 2.882 0 0-.262.262-.262 0-.786-.524-2.096-1.31-2.882-1.572-.262-.262-.524-.524-.524-.786 0-1.834-.524-8.122-6.549-11.528-8.122-4.716-14.672-1.834-18.078-3.93-1.572-1.048-3.93-4.454-5.502-6.288-1.31-1.572-3.668 0-6.811 5.502l-.262.262c0 .262-.263.262-.263.262-3.143 5.502-3.143 8.384-1.309 8.646 2.357 1.048 6.811 1.572 8.383 2.358zm193.348 98.771c-3.66-1.834-4.45-9.17-12.57-13.624-6.03-3.405-11.79-.786-13.1.262-.26.262-.53.262-.79 0-.78-.262-1.83-1.048-2.88-1.572 0 0-.26-.262 0-.262 1.05-2.62 1.05-4.715.26-5.24l-2.88-1.571c-1.31-.786-4.45 2.358-7.07 6.811-2.62 4.454-3.67 8.646-2.36 9.432l2.88 1.572c.79.524 2.62-.786 4.45-2.882 0 0 .27-.262.27 0 .78.524 2.09 1.31 2.88 1.572.26.262.52.524.52.786 0 1.834.53 8.122 6.55 11.528 8.12 4.716 14.67 1.834 18.08 3.93 1.57 1.048 3.93 4.454 5.5 6.288 1.31 1.571 3.67 0 6.81-5.502l.26-.262c0-.262.27-.262.27-.262 3.14-5.502 3.14-8.384 1.31-8.646-2.62-1.31-6.82-1.572-8.39-2.358zm-.52-98.771c-3.67 1.834-4.46 9.17-12.58 13.623-6.02 3.406-11.79.786-13.1-.262-.26-.262-.52-.262-.78 0-.79.262-1.84 1.048-2.88 1.572 0 0-.27.262 0 .262 1.04 2.62 1.04 4.716.26 5.24l-2.88 1.572c-1.31.786-4.46-2.358-7.08-6.812-2.62-4.454-3.67-8.645-2.36-9.431l2.89-1.572c.78-.524 2.62.786 4.45 2.882 0 0 .26.262.26 0 .79-.524 2.1-1.31 2.88-1.572.27-.262.53-.524.53-.786 0-1.834.52-8.122 6.55-11.528 8.12-4.716 14.67-1.834 18.07-3.93 1.58-1.048 3.93-4.454 5.51-6.288 1.31-1.572 3.66 0 6.81 5.502l.26.262c0 .262.26.262.26.262 3.15 5.502 3.15 8.384 1.31 8.646-2.62 1.31-6.81 1.572-8.38 2.358zm-193.351 98.771c3.667-1.834 4.453-9.17 12.575-13.624 6.026-3.405 11.79-.786 13.1.262.262.262.524.262.786 0 .786-.262 1.834-1.048 2.882-1.572 0 0 .262-.262 0-.262-1.048-2.62-1.048-4.715-.262-5.24l2.882-1.571c1.31-.786 4.454 2.358 7.073 6.811 2.62 4.454 3.668 8.646 2.358 9.432l-2.882 1.572c-.786.524-2.619-.786-4.453-2.882 0 0-.262-.262-.262 0-.786.524-2.096 1.31-2.882 1.572-.262.262-.524.524-.524.786 0 1.834-.524 8.122-6.55 11.528-8.122 4.716-14.672 1.834-18.078 3.93-1.572 1.048-3.929 4.454-5.501 6.288-1.31 1.571-3.668 0-6.812-5.502l-.262-.262c0-.262-.262-.262-.262-.262-3.144-5.502-3.144-8.384-1.31-8.646 2.358-1.048 6.812-1.572 8.384-2.358z" stroke="#fff" stroke-width=".5" stroke-miterlimit="10"/><path d="M908.711 67.19c5.24 0 8.383-.786 9.431-2.358v-3.667c0-.262-.262-.786-.524-1.048-1.048-.786-2.357-1.31-4.191-1.572v-3.668c0-.262 0-.262.262-.262 3.929-2.62 6.287-5.764 6.811-9.694.524-4.716-.524-9.17-3.144-13.624-1.571-2.62-2.358-4.716-2.358-6.288 0-1.047.787-3.143 2.358-6.55.524-1.31.786-2.357-.262-2.881-2.096-1.048-4.715-1.572-8.121-1.572m-.262 53.971c5.24 0 8.383.785 9.431 2.358v3.667c0 .262-.262.786-.524 1.048-1.048.786-2.357 1.31-4.191 1.572v3.668c0 .262 0 .262.262.262 3.929 2.62 6.287 5.764 6.811 9.694.524 4.716-.524 9.17-3.144 13.624-1.571 2.619-2.358 4.715-2.358 6.287 0 1.048.787 3.144 2.358 6.55.524 1.31.786 2.358-.262 2.882-2.096 1.048-4.715 1.572-8.121 1.572M1138.48 67.19c-5.24 0-8.39-.786-9.43-2.358v-3.667c0-.262.26-.786.52-1.048 1.05-.786 2.36-1.31 4.19-1.572v-3.668c0-.262 0-.262-.26-.262-3.93-2.62-6.29-5.764-6.81-9.694-.53-4.716.52-9.17 3.14-13.624 1.57-2.62 2.36-4.716 2.36-6.288 0-1.047-.79-3.143-2.36-6.55-.52-1.31-.78-2.357.26-2.881 2.1-1.048 4.72-1.572 8.13-1.572m.26 53.971c-5.24 0-8.39.785-9.43 2.358v3.667c0 .262.26.786.52 1.048 1.05.786 2.36 1.31 4.19 1.572v3.668c0 .262 0 .262-.26.262-3.93 2.62-6.29 5.764-6.81 9.694-.53 4.716.52 9.17 3.14 13.624 1.57 2.619 2.36 4.715 2.36 6.287 0 1.048-.79 3.144-2.36 6.55-.52 1.31-.78 2.358.26 2.882 2.1 1.048 4.72 1.572 8.13 1.572" stroke="#fff" stroke-width=".5" stroke-miterlimit="22.926"/><path d="M1041.54 219.146c3.67 1.834 4.45 9.17 12.58 13.624 6.02 3.406 11.79.786 13.1-.262.26-.262.52-.262.78 0 .79.262 1.84 1.048 2.88 1.572 0 0 .27.262 0 .262-1.04 2.62-1.04 4.715-.26 5.239l2.88 1.572c1.31.786 4.46-2.358 7.08-6.811 2.62-4.454 3.66-8.646 2.35-9.432l-2.88-1.572c-.78-.524-2.62.786-4.45 2.882 0 0-.26.262-.26 0-.79-.524-2.1-1.31-2.88-1.572-.27-.262-.53-.524-.53-.786 0-1.834-.52-8.122-6.55-11.528-8.12-4.716-14.67-1.834-18.08-3.93-1.57-1.048-3.93-4.453-5.5-6.287-1.31-1.572-3.67 0-6.81 5.501l-.26.262c0 .262-.26.262-.26.262-3.15 5.502-3.15 8.384-1.31 8.646 2.62 1.048 6.81 1.31 8.38 2.358zm-36.42-35.107c-3.66-1.834-4.45-9.17-12.572-13.623-6.026-3.406-11.789-.786-13.099.262-.262.262-.524.262-.786 0-.786-.262-1.834-1.048-2.882-1.572 0 0-.262-.262 0-.262 1.048-2.62 1.048-4.716.262-5.24l-2.882-1.572c-1.31-.786-4.454 2.358-7.074 6.812-2.62 4.453-3.668 8.645-2.358 9.431l2.882 1.572c.786.524 2.62-.786 4.454-2.882 0 0 .262-.262.262 0 .786.524 2.096 1.31 2.882 1.572.262.262.524.524.524.786 0 1.834.524 8.122 6.549 11.528 8.122 4.716 14.672 1.834 18.078 3.93 1.57 1.048 3.93 4.454 5.5 6.288 1.31 1.572 3.67 0 6.81-5.502l.27-.262c0-.262.26-.262.26-.262 3.14-5.502 3.14-8.384 1.31-8.646-2.36-1.31-6.81-1.572-8.39-2.358zm12.06 41.919c.26 4.191-5.51 8.383-5.77 17.815 0 7.074 5.24 10.48 6.81 11.266.27.262.53.524.53.786v3.144c0 .262 0 .262-.26.262-2.89.524-4.72 1.309-4.72 2.357v3.406c0 1.572 4.19 2.62 9.43 2.62 5.24 0 9.43-1.31 9.43-2.62v-3.406c0-1.048-1.83-1.833-4.71-2.357-.26 0-.26-.262-.26-.262v-3.144c0-.262.26-.524.52-.786 1.57-.786 6.81-4.454 6.81-11.266 0-9.432-5.76-13.624-5.76-17.815 0-1.834 1.83-5.764 2.62-7.86.78-1.834-1.84-3.144-8.39-3.144h-1.04c-6.55 0-8.91 1.572-8.39 3.144 1.31 2.096 3.15 6.288 3.15 7.86zm12.31-48.993c-.26-4.192 5.5-8.384 5.76-17.815 0-7.074-5.24-10.48-6.81-11.266-.26-.262-.52-.524-.52-.786v-3.144c0-.262 0-.262.26-.262 2.88-.524 4.72-1.31 4.72-2.358v-3.406c0-1.572-4.2-2.62-9.44-2.62-5.24 0-9.43 1.31-9.43 2.62v3.406c0 1.048 1.84 1.834 4.72 2.358.26 0 .26.262.26.262v3.144c0 .262-.26.524-.52.786-1.58.786-6.82 4.454-6.82 11.266 0 9.431 5.77 13.623 5.77 17.815 0 1.834-1.84 5.764-2.62 7.86-.79 1.834 1.83 3.144 8.38 3.144h1.05c6.55 0 8.91-1.572 8.38-3.144-1.31-2.096-3.14-6.026-3.14-7.86z" stroke="#fff" stroke-width=".5" stroke-miterlimit="10"/><path d="M999.098 208.404c-3.406 2.096-9.956-.786-18.078 3.93-6.026 3.406-6.55 9.694-6.55 11.528 0 .262-.262.524-.524.786-.786.262-1.834 1.048-2.882 1.572h-.262c-1.834-2.096-3.405-3.406-4.453-2.882l-2.882 1.572c-1.31.786-.262 4.978 2.358 9.432 2.62 4.453 5.764 7.597 7.073 6.811l2.882-1.572c.786-.524.786-2.62-.262-5.239v-.262c.786-.524 2.096-1.31 2.882-1.572.262-.262.524-.262.786 0 1.572.786 7.074 3.667 13.1.262 8.124-4.716 8.904-11.79 12.574-13.624 1.57-.786 5.77-1.31 8.12-1.572 1.84-.262 1.84-3.144-1.31-8.646l-.26-.262c0-.262-.26-.262-.26-.262-3.14-5.502-5.76-7.074-6.81-5.502-1.31 1.048-3.67 4.716-5.242 5.502zm48.472-13.885c3.4-2.096 9.95.786 18.07-3.93 6.03-3.406 6.55-9.694 6.55-11.528 0-.262.27-.524.53-.786.78-.262 1.83-1.048 2.88-1.572h.26c1.84 2.096 3.41 3.406 4.46 2.882l2.88-1.572c1.31-.786.26-4.978-2.36-9.432-2.62-4.454-5.76-7.597-7.07-6.811l-2.89 1.572c-.78.523-.78 2.619.27 5.239v.262c-.79.524-2.1 1.31-2.89 1.572-.26.262-.52.262-.78 0-1.57-.786-7.08-3.668-13.1-.262-8.12 4.716-8.91 11.79-12.58 13.624-1.57.786-5.76 1.31-8.12 1.572-1.83.262-1.83 3.144 1.31 8.646l.26.262c0 .262.27.262.27.262 3.14 5.501 5.76 7.073 6.81 5.501 1.31-1.048 3.93-4.453 5.24-5.501zm-120.258-42.705c3.668 1.834 4.454 9.17 12.576 13.623 6.026 3.406 11.79.786 13.1-.262.262-.262.523-.262.785 0 .786.262 1.835 1.048 2.882 1.572 0 0 .262.262 0 .262-1.047 2.62-1.048 4.716-.262 5.24l2.882 1.572c1.31.786 4.454-2.358 7.074-6.812 2.62-4.454 3.668-8.645 2.358-9.431l-2.882-1.572c-.786-.524-2.62.786-4.454 2.882 0 0-.262.262-.262 0-.786-.524-2.096-1.31-2.882-1.572-.262-.262-.524-.524-.524-.786 0-1.834-.524-8.122-6.549-11.528-8.122-4.716-14.672-1.834-18.078-3.93-1.572-1.048-3.93-4.454-5.502-6.288-1.31-1.572-3.668 0-6.811 5.502l-.262.262c0 .262-.263.262-.263.262-3.143 5.502-3.143 8.384-1.309 8.646 2.357 1.048 6.811 1.31 8.383 2.358zm193.348 98.509c-3.66-1.834-4.45-9.17-12.57-13.624-6.03-3.406-11.79-.786-13.1.262-.26.262-.53.262-.79 0-.78-.262-1.83-1.048-2.88-1.572 0 0-.26-.262 0-.262 1.05-2.62 1.05-4.716.26-5.24l-2.88-1.572c-1.31-.785-4.45 2.358-7.07 6.812-2.62 4.454-3.67 8.646-2.36 9.432l2.88 1.572c.79.524 2.62-.786 4.45-2.882 0 0 .27-.262.27 0 .78.524 2.09 1.31 2.88 1.572.26.262.52.524.52.786 0 1.834.53 8.122 6.55 11.528 8.12 4.716 14.67 1.834 18.08 3.93 1.57 1.047 3.93 4.453 5.5 6.287 1.31 1.572 3.67 0 6.81-5.501l.26-.262c0-.262.27-.262.27-.262 3.14-5.502 3.14-8.384 1.31-8.646-2.62-1.048-6.82-1.31-8.39-2.358zm-.52-98.509c-3.67 1.834-4.46 9.17-12.58 13.623-6.02 3.406-11.79.786-13.1-.262-.26-.262-.52-.262-.78 0-.79.262-1.84 1.048-2.88 1.572 0 0-.27.262 0 .262 1.04 2.62 1.04 4.716.26 5.24l-2.88 1.572c-1.31.786-4.46-2.358-7.08-6.812-2.62-4.454-3.67-8.645-2.36-9.431l2.89-1.572c.78-.524 2.62.786 4.45 2.882 0 0 .26.262.26 0 .79-.524 2.1-1.31 2.88-1.572.27-.262.53-.524.53-.786 0-1.834.52-8.122 6.55-11.528 8.12-4.716 14.67-1.834 18.07-3.93 1.58-1.048 3.93-4.454 5.51-6.288 1.31-1.572 3.66 0 6.81 5.502l.26.262c0 .262.26.262.26.262 3.15 5.502 3.15 8.384 1.31 8.646-2.62 1.048-6.81 1.572-8.38 2.358zm-193.351 98.771c3.667-1.834 4.453-9.17 12.575-13.624 6.026-3.405 11.79-.786 13.1.262.262.262.524.262.786 0 .786-.262 1.834-1.048 2.882-1.572 0 0 .262-.262 0-.262-1.048-2.619-1.048-4.715-.262-5.239l2.882-1.572c1.31-.786 4.454 2.358 7.073 6.811 2.62 4.454 3.668 8.646 2.358 9.432l-2.882 1.572c-.786.524-2.619-.786-4.453-2.882 0 0-.262-.262-.262 0-.786.524-2.096 1.31-2.882 1.572-.262.262-.524.524-.524.786 0 1.834-.524 8.122-6.55 11.528-8.122 4.716-14.672 1.834-18.078 3.93-1.572 1.048-3.929 4.454-5.501 6.288-1.31 1.571-3.668 0-6.812-5.502l-.262-.262c0-.262-.262-.262-.262-.262-3.144-5.502-3.144-8.384-1.31-8.646 2.358-1.31 6.812-1.572 8.384-2.358z" stroke="#fff" stroke-width=".5" stroke-miterlimit="10"/><path d="M908.711 200.545c5.24 0 8.383-.786 9.431-2.358v-3.668c0-.262-.262-.786-.524-1.048-1.048-.786-2.357-1.31-4.191-1.572v-3.668c0-.262 0-.262.262-.262 3.929-2.62 6.287-5.764 6.811-9.694.524-4.716-.524-9.17-3.144-13.623-1.571-2.62-2.358-4.716-2.358-6.288 0-1.048.787-3.144 2.358-6.55.524-1.31.786-2.358-.262-2.882-2.096-1.048-4.715-1.572-8.121-1.572m-.262 53.709c5.24 0 8.383.786 9.431 2.358v3.667c0 .262-.262.786-.524 1.048-1.048.786-2.357 1.31-4.191 1.572v3.668c0 .262 0 .262.262.262 3.929 2.62 6.287 5.764 6.811 9.694.524 4.716-.524 9.17-3.144 13.624-1.571 2.619-2.358 4.715-2.358 6.287 0 1.048.787 3.144 2.358 6.55.524 1.31.786 2.358-.262 2.882-2.096 1.048-4.715 1.572-8.121 1.572m229.507-53.708c-5.24 0-8.39-.786-9.43-2.358v-3.668c0-.262.26-.786.52-1.048 1.05-.786 2.36-1.31 4.19-1.572v-3.668c0-.262 0-.262-.26-.262-3.93-2.62-6.29-5.764-6.81-9.694-.53-4.716.52-9.17 3.14-13.623 1.57-2.62 2.36-4.716 2.36-6.288 0-1.048-.79-3.144-2.36-6.55-.52-1.31-.78-2.358.26-2.882 2.1-1.048 4.72-1.572 8.13-1.572m.26 53.709c-5.24 0-8.39.786-9.43 2.358v3.667c0 .262.26.786.52 1.048 1.05.786 2.36 1.31 4.19 1.572v3.668c0 .262 0 .262-.26.262-3.93 2.62-6.29 5.764-6.81 9.694-.53 4.716.52 9.17 3.14 13.624 1.57 2.619 2.36 4.715 2.36 6.287 0 1.048-.79 3.144-2.36 6.55-.52 1.31-.78 2.358.26 2.882 2.1 1.048 4.72 1.572 8.13 1.572" stroke="#fff" stroke-width=".5" stroke-miterlimit="22.926"/><path d="M1270.52 85.792c3.67 1.834 4.46 9.17 12.58 13.623 6.02 3.406 11.79.786 13.1-.262.26-.262.52-.262.78 0 .79.262 1.84 1.048 2.89 1.572 0 0 .26.262 0 .262-1.05 2.62-1.05 4.716-.27 5.24l2.89 1.572c1.31.786 4.45-2.358 7.07-6.812 2.62-4.453 3.67-8.645 2.36-9.431l-2.88-1.572c-.79-.524-2.62.786-4.46 2.882 0 0-.26.262-.26 0-.79-.524-2.1-1.31-2.88-1.572-.26-.262-.53-.524-.53-.786 0-1.834-.52-8.122-6.55-11.528-8.12-4.716-14.67-1.834-18.07-3.93-1.58-1.048-3.93-4.454-5.51-6.288-1.31-1.572-3.66 0-6.81 5.502l-.26.262c0 .262-.26.262-.26.262-3.15 5.502-3.15 8.384-1.31 8.646 2.62 1.048 6.81 1.572 8.38 2.358zm-36.42-35.107c-3.66-1.834-4.45-9.17-12.57-13.624-6.03-3.406-11.79-.786-13.1.262-.26.262-.52.262-.79 0-.78-.262-1.83-1.048-2.88-1.572 0 0-.26-.262 0-.262 1.05-2.62 1.05-4.715.26-5.24l-2.88-1.572c-1.31-.785-4.45 2.358-7.07 6.812-2.62 4.454-3.67 8.646-2.36 9.432l2.88 1.572c.79.524 2.62-.786 4.46-2.882 0 0 .26-.262.26 0 .78.524 2.09 1.31 2.88 1.572.26.262.52.524.52.786 0 1.834.53 8.122 6.55 11.528 8.13 4.716 14.67 1.834 18.08 3.93 1.57 1.047 3.93 4.453 5.5 6.287 1.31 1.572 3.67 0 6.81-5.501l.27-.262c0-.262.26-.262.26-.262 3.14-5.502 3.14-8.384 1.31-8.646-2.36-1.31-6.81-1.572-8.39-2.358zm12.06 42.181c.26 4.192-5.5 8.383-5.77 17.815 0 7.074 5.24 10.48 6.81 11.266.27.262.53.524.53.786v3.144c0 .262 0 .262-.26.262-2.89.524-4.72 1.31-4.72 2.358v3.406c0 1.572 4.19 2.619 9.43 2.619 5.24 0 9.43-1.309 9.43-2.619v-3.406c0-1.048-1.83-1.834-4.71-2.358-.26 0-.26-.262-.26-.262v-3.144c0-.262.26-.524.52-.786 1.57-.786 6.81-4.454 6.81-11.266 0-9.432-5.76-13.623-5.76-17.815 0-1.834 1.83-5.764 2.62-7.86.78-1.834-1.84-3.144-8.39-3.144h-1.04c-6.55 0-8.91 1.572-8.39 3.144 1.31 2.096 3.15 6.026 3.15 7.86zm12.31-49.255c-.26-4.192 5.5-8.384 5.76-17.815 0-7.074-5.24-10.48-6.81-11.266-.26-.262-.52-.524-.52-.786V10.6c0-.262 0-.262.26-.262 2.88-.524 4.72-1.31 4.72-2.358V4.574c0-1.572-4.2-2.62-9.44-2.62-5.24 0-9.43 1.31-9.43 2.62V7.98c0 1.048 1.84 1.834 4.72 2.358.26 0 .26.262.26.262v3.144c0 .262-.26.524-.52.786-1.58.786-6.82 4.454-6.82 11.266 0 9.431 5.77 13.623 5.77 17.815 0 1.834-1.84 5.764-2.62 7.86-.79 1.834 1.83 3.144 8.38 3.144h1.05c6.55 0 8.91-1.572 8.38-3.144-1.31-2.096-3.14-6.026-3.14-7.86z" stroke="#fff" stroke-width=".5" stroke-miterlimit="10"/><path d="M1228.08 75.05c-3.41 2.096-9.96-.786-18.08 3.93-6.02 3.406-6.55 9.694-6.55 11.528 0 .262-.26.524-.52.786-.79.262-1.84 1.047-2.88 1.572h-.27c-1.83-2.096-3.4-3.406-4.45-2.882l-2.88 1.572c-1.31.785-.26 4.977 2.36 9.431 2.62 4.454 5.76 7.598 7.07 6.812l2.88-1.572c.79-.524.79-2.62-.26-5.24v-.262c.79-.524 2.1-1.31 2.88-1.572.26-.262.53-.262.79 0 1.57.786 7.07 3.668 13.1.262 8.12-4.716 8.91-11.79 12.57-13.623 1.58-.786 5.77-1.31 8.13-1.572 1.83-.262 1.83-3.144-1.31-8.646l-.27-.262c0-.262-.26-.262-.26-.262-3.14-5.502-5.76-7.074-6.81-5.502-1.31 1.048-3.67 4.716-5.24 5.502zm48.47-13.885c3.4-2.096 9.95.786 18.08-3.93 6.02-3.406 6.55-9.694 6.55-11.528 0-.262.26-.524.52-.786.79-.262 1.83-1.048 2.88-1.572h.26c1.84 2.096 3.41 3.406 4.46 2.882l2.88-1.572c1.31-.786.26-4.978-2.36-9.432-2.62-4.453-5.76-7.597-7.07-6.811l-2.88 1.572c-.79.524-.79 2.62.26 5.24v.261c-.79.524-2.1 1.31-2.88 1.572-.27.262-.53.262-.79 0-1.57-.786-7.07-3.668-13.1-.262-8.12 4.716-8.91 11.79-12.58 13.624-1.57.786-5.76 1.31-8.12 1.572-1.83.262-1.83 3.144 1.31 8.646l.26.262c0 .262.27.262.27.262 3.14 5.502 5.76 7.073 6.81 5.501 1.31-1.047 3.93-4.453 5.24-5.501zM1156.29 18.46c3.67 1.834 4.46 9.17 12.58 13.623 6.02 3.406 11.79.786 13.1-.262.26-.262.52-.262.78 0 .79.262 1.84 1.048 2.89 1.572 0 0 .26.262 0 .262-1.05 2.62-1.05 4.716-.27 5.24l2.89 1.572c1.31.786 4.45-2.358 7.07-6.812 2.62-4.454 3.67-8.645 2.36-9.431l-2.88-1.572c-.79-.524-2.62.786-4.46 2.882 0 0-.26.262-.26 0-.79-.524-2.1-1.31-2.88-1.572-.26-.262-.53-.524-.53-.786 0-1.834-.52-8.122-6.55-11.528-8.12-4.716-14.67-1.834-18.07-3.93-1.58-1.048-3.93-4.454-5.51-6.288-1.31-1.572-3.66 0-6.81 5.502l-.26.262c0 .262-.26.262-.26.262-3.14 5.502-3.14 8.384-1.31 8.646 2.36 1.048 6.81 1.572 8.38 2.358zm193.35 98.771c-3.66-1.834-4.45-9.17-12.57-13.624-6.03-3.405-11.79-.786-13.1.262-.26.262-.53.262-.79 0-.78-.262-1.83-1.048-2.88-1.572 0 0-.26-.262 0-.262 1.05-2.62 1.05-4.715.26-5.24l-2.88-1.571c-1.31-.786-4.45 2.358-7.07 6.811-2.62 4.454-3.67 8.646-2.36 9.432l2.88 1.572c.79.524 2.62-.786 4.45-2.882 0 0 .27-.262.27 0 .78.524 2.09 1.31 2.88 1.572.26.262.52.524.52.786 0 1.834.53 8.122 6.55 11.528 8.12 4.716 14.67 1.834 18.08 3.93 1.57 1.048 3.93 4.454 5.5 6.288 1.31 1.571 3.67 0 6.81-5.502l.27-.262c0-.262.26-.262.26-.262 3.14-5.502 3.14-8.384 1.31-8.646-2.62-1.31-6.81-1.572-8.39-2.358zm-.52-98.771c-3.67 1.834-4.45 9.17-12.58 13.623-6.02 3.406-11.79.786-13.1-.262-.26-.262-.52-.262-.78 0-.79.262-1.84 1.048-2.88 1.572 0 0-.27.262 0 .262 1.04 2.62 1.04 4.716.26 5.24l-2.88 1.572c-1.31.786-4.46-2.358-7.08-6.812-2.62-4.454-3.67-8.645-2.36-9.431l2.89-1.572c.78-.524 2.62.786 4.45 2.882 0 0 .26.262.26 0 .79-.524 2.1-1.31 2.88-1.572.27-.262.53-.524.53-.786 0-1.834.52-8.122 6.55-11.528 8.12-4.716 14.67-1.834 18.08-3.93 1.57-1.048 3.93-4.454 5.5-6.288 1.31-1.572 3.67 0 6.81 5.502l.26.262c0 .262.26.262.26.262 3.15 5.502 3.15 8.384 1.31 8.646-2.62 1.31-6.81 1.572-8.38 2.358zm-193.35 98.771c3.67-1.834 4.45-9.17 12.58-13.624 6.02-3.405 11.78-.786 13.09.262.27.262.53.262.79 0 .79-.262 1.83-1.048 2.88-1.572 0 0 .26-.262 0-.262-1.05-2.62-1.05-4.715-.26-5.24l2.88-1.571c1.31-.786 4.46 2.358 7.08 6.811 2.62 4.454 3.66 8.646 2.35 9.432l-2.88 1.572c-.78.524-2.62-.786-4.45-2.882 0 0-.26-.262-.26 0-.79.524-2.1 1.31-2.89 1.572-.26.262-.52.524-.52.786 0 1.834-.52 8.122-6.55 11.528-8.12 4.716-14.67 1.834-18.08 3.93-1.57 1.048-3.93 4.454-5.5 6.288-1.31 1.572-3.67 0-6.81-5.502l-.26-.262c0-.262-.26-.262-.26-.262-3.15-5.502-3.15-8.384-1.31-8.646 2.35-1.048 6.81-1.572 8.38-2.358z" stroke="#fff" stroke-width=".5" stroke-miterlimit="10"/><path d="M1137.69 67.19c5.24 0 8.39-.786 9.43-2.358v-3.667c0-.262-.26-.786-.52-1.048-1.05-.786-2.36-1.31-4.19-1.572v-3.668c0-.262 0-.262.26-.262 3.93-2.62 6.29-5.764 6.81-9.694.53-4.716-.52-9.17-3.14-13.624-1.57-2.62-2.36-4.716-2.36-6.288 0-1.047.79-3.143 2.36-6.55.52-1.31.78-2.357-.26-2.881-2.1-1.048-4.72-1.572-8.13-1.572m-.26 53.971c5.24 0 8.39.785 9.43 2.358v3.667c0 .262-.26.786-.52 1.048-1.05.786-2.36 1.31-4.19 1.572v3.668c0 .262 0 .262.26.262 3.93 2.62 6.29 5.764 6.81 9.694.53 4.716-.52 9.17-3.14 13.624-1.57 2.619-2.36 4.715-2.36 6.287 0 1.048.79 3.144 2.36 6.55.52 1.31.78 2.358-.26 2.882-2.1 1.048-4.72 1.572-8.13 1.572m229.51-53.971c-5.24 0-8.38-.786-9.43-2.358v-3.667c0-.262.26-.786.52-1.048 1.05-.786 2.36-1.31 4.19-1.572v-3.668c0-.262 0-.262-.26-.262-3.93-2.62-6.29-5.764-6.81-9.694-.52-4.716.52-9.17 3.14-13.624 1.58-2.62 2.36-4.716 2.36-6.288 0-1.047-.78-3.143-2.36-6.55-.52-1.31-.78-2.357.27-2.881 2.09-1.048 4.71-1.572 8.12-1.572m.26 53.971c-5.24 0-8.38.785-9.43 2.358v3.667c0 .262.26.786.52 1.048 1.05.786 2.36 1.31 4.19 1.572v3.668c0 .262 0 .262-.26.262-3.93 2.62-6.29 5.764-6.81 9.694-.52 4.716.52 9.17 3.14 13.624 1.58 2.619 2.36 4.715 2.36 6.287 0 1.048-.78 3.144-2.36 6.55-.52 1.31-.78 2.358.27 2.882 2.09 1.048 4.71 1.572 8.12 1.572" stroke="#fff" stroke-width=".5" stroke-miterlimit="22.926"/><path d="M1270.52 219.146c3.67 1.834 4.46 9.17 12.58 13.624 6.02 3.406 11.79.786 13.1-.262.26-.262.52-.262.78 0 .79.262 1.84 1.048 2.89 1.572 0 0 .26.262 0 .262-1.05 2.62-1.05 4.715-.27 5.239l2.89 1.572c1.31.786 4.45-2.358 7.07-6.811 2.62-4.454 3.67-8.646 2.36-9.432l-2.88-1.572c-.79-.524-2.62.786-4.46 2.882 0 0-.26.262-.26 0-.79-.524-2.1-1.31-2.88-1.572-.26-.262-.53-.524-.53-.786 0-1.834-.52-8.122-6.55-11.528-8.12-4.716-14.67-1.834-18.07-3.93-1.58-1.048-3.93-4.453-5.51-6.287-1.31-1.572-3.66 0-6.81 5.501l-.26.262c0 .262-.26.262-.26.262-3.15 5.502-3.15 8.384-1.31 8.646 2.62 1.048 6.81 1.31 8.38 2.358zm-36.42-35.107c-3.66-1.834-4.45-9.17-12.57-13.623-6.03-3.406-11.79-.786-13.1.262-.26.262-.52.262-.79 0-.78-.262-1.83-1.048-2.88-1.572 0 0-.26-.262 0-.262 1.05-2.62 1.05-4.716.26-5.24l-2.88-1.572c-1.31-.786-4.45 2.358-7.07 6.812-2.62 4.453-3.67 8.645-2.36 9.431l2.88 1.572c.79.524 2.62-.786 4.46-2.882 0 0 .26-.262.26 0 .78.524 2.09 1.31 2.88 1.572.26.262.52.524.52.786 0 1.834.53 8.122 6.55 11.528 8.13 4.716 14.67 1.834 18.08 3.93 1.57 1.048 3.93 4.454 5.5 6.288 1.31 1.572 3.67 0 6.81-5.502l.27-.262c0-.262.26-.262.26-.262 3.14-5.502 3.14-8.384 1.31-8.646-2.36-1.31-6.81-1.572-8.39-2.358zm12.06 41.919c.26 4.191-5.5 8.383-5.77 17.815 0 7.074 5.24 10.48 6.81 11.266.27.262.53.524.53.786v3.144c0 .262 0 .262-.26.262-2.89.524-4.72 1.309-4.72 2.357v3.406c0 1.572 4.19 2.62 9.43 2.62 5.24 0 9.43-1.31 9.43-2.62v-3.406c0-1.048-1.83-1.833-4.71-2.357-.26 0-.26-.262-.26-.262v-3.144c0-.262.26-.524.52-.786 1.57-.786 6.81-4.454 6.81-11.266 0-9.432-5.76-13.624-5.76-17.815 0-1.834 1.83-5.764 2.62-7.86.78-1.834-1.84-3.144-8.39-3.144h-1.04c-6.55 0-8.91 1.572-8.39 3.144 1.31 2.096 3.15 6.288 3.15 7.86zm12.31-48.993c-.26-4.192 5.5-8.384 5.76-17.815 0-7.074-5.24-10.48-6.81-11.266-.26-.262-.52-.524-.52-.786v-3.144c0-.262 0-.262.26-.262 2.88-.524 4.72-1.31 4.72-2.358v-3.406c0-1.572-4.2-2.62-9.44-2.62-5.24 0-9.43 1.31-9.43 2.62v3.406c0 1.048 1.84 1.834 4.72 2.358.26 0 .26.262.26.262v3.144c0 .262-.26.524-.52.786-1.58.786-6.82 4.454-6.82 11.266 0 9.431 5.77 13.623 5.77 17.815 0 1.834-1.84 5.764-2.62 7.86-.79 1.834 1.83 3.144 8.38 3.144h1.05c6.55 0 8.91-1.572 8.38-3.144-1.31-2.096-3.14-6.026-3.14-7.86z" stroke="#fff" stroke-width=".5" stroke-miterlimit="10"/><path d="M1228.08 208.404c-3.41 2.096-9.96-.786-18.08 3.93-6.02 3.406-6.55 9.694-6.55 11.528 0 .262-.26.524-.52.786-.79.262-1.84 1.048-2.88 1.572h-.27c-1.83-2.096-3.4-3.406-4.45-2.882l-2.88 1.572c-1.31.786-.26 4.978 2.36 9.432 2.62 4.453 5.76 7.597 7.07 6.811l2.88-1.572c.79-.524.79-2.62-.26-5.239v-.262c.79-.524 2.1-1.31 2.88-1.572.26-.262.53-.262.79 0 1.57.786 7.07 3.667 13.1.262 8.12-4.716 8.91-11.79 12.57-13.624 1.58-.786 5.77-1.31 8.13-1.572 1.83-.262 1.83-3.144-1.31-8.646l-.27-.262c0-.262-.26-.262-.26-.262-3.14-5.502-5.76-7.074-6.81-5.502-1.31 1.048-3.67 4.716-5.24 5.502zm48.47-13.885c3.4-2.096 9.95.786 18.08-3.93 6.02-3.406 6.55-9.694 6.55-11.528 0-.262.26-.524.52-.786.79-.262 1.83-1.048 2.88-1.572h.26c1.84 2.096 3.41 3.406 4.46 2.882l2.88-1.572c1.31-.786.26-4.978-2.36-9.432-2.62-4.454-5.76-7.597-7.07-6.811l-2.88 1.572c-.79.523-.79 2.619.26 5.239v.262c-.79.524-2.1 1.31-2.88 1.572-.27.262-.53.262-.79 0-1.57-.786-7.07-3.668-13.1-.262-8.12 4.716-8.91 11.79-12.58 13.624-1.57.786-5.76 1.31-8.12 1.572-1.83.262-1.83 3.144 1.31 8.646l.26.262c0 .262.27.262.27.262 3.14 5.501 5.76 7.073 6.81 5.501 1.31-1.048 3.93-4.453 5.24-5.501zm-120.26-42.705c3.67 1.834 4.46 9.17 12.58 13.623 6.02 3.406 11.79.786 13.1-.262.26-.262.52-.262.78 0 .79.262 1.84 1.048 2.89 1.572 0 0 .26.262 0 .262-1.05 2.62-1.05 4.716-.27 5.24l2.89 1.572c1.31.786 4.45-2.358 7.07-6.812 2.62-4.454 3.67-8.645 2.36-9.431l-2.88-1.572c-.79-.524-2.62.786-4.46 2.882 0 0-.26.262-.26 0-.79-.524-2.1-1.31-2.88-1.572-.26-.262-.53-.524-.53-.786 0-1.834-.52-8.122-6.55-11.528-8.12-4.716-14.67-1.834-18.07-3.93-1.58-1.048-3.93-4.454-5.51-6.288-1.31-1.572-3.66 0-6.81 5.502l-.26.262c0 .262-.26.262-.26.262-3.14 5.502-3.14 8.384-1.31 8.646 2.36 1.048 6.81 1.31 8.38 2.358zm193.35 98.509c-3.66-1.834-4.45-9.17-12.57-13.624-6.03-3.406-11.79-.786-13.1.262-.26.262-.53.262-.79 0-.78-.262-1.83-1.048-2.88-1.572 0 0-.26-.262 0-.262 1.05-2.62 1.05-4.716.26-5.24l-2.88-1.572c-1.31-.785-4.45 2.358-7.07 6.812-2.62 4.454-3.67 8.646-2.36 9.432l2.88 1.572c.79.524 2.62-.786 4.45-2.882 0 0 .27-.262.27 0 .78.524 2.09 1.31 2.88 1.572.26.262.52.524.52.786 0 1.834.53 8.122 6.55 11.528 8.12 4.716 14.67 1.834 18.08 3.93 1.57 1.047 3.93 4.453 5.5 6.287 1.31 1.572 3.67 0 6.81-5.501l.27-.262c0-.262.26-.262.26-.262 3.14-5.502 3.14-8.384 1.31-8.646-2.62-1.048-6.81-1.31-8.39-2.358zm-.52-98.509c-3.67 1.834-4.45 9.17-12.58 13.623-6.02 3.406-11.79.786-13.1-.262-.26-.262-.52-.262-.78 0-.79.262-1.84 1.048-2.88 1.572 0 0-.27.262 0 .262 1.04 2.62 1.04 4.716.26 5.24l-2.88 1.572c-1.31.786-4.46-2.358-7.08-6.812-2.62-4.454-3.66-8.645-2.35-9.431l2.88-1.572c.78-.524 2.62.786 4.45 2.882 0 0 .26.262.26 0 .79-.524 2.1-1.31 2.88-1.572.27-.262.53-.524.53-.786 0-1.834.52-8.122 6.55-11.528 8.12-4.716 14.67-1.834 18.08-3.93 1.57-1.048 3.93-4.454 5.5-6.288 1.31-1.572 3.67 0 6.81 5.502l.26.262c0 .262.26.262.26.262 3.15 5.502 3.15 8.384 1.31 8.646-2.62 1.048-6.81 1.572-8.38 2.358zm-193.35 98.771c3.67-1.834 4.45-9.17 12.58-13.624 6.02-3.405 11.78-.786 13.09.262.27.262.53.262.79 0 .79-.262 1.83-1.048 2.88-1.572 0 0 .26-.262 0-.262-1.05-2.619-1.05-4.715-.26-5.239l2.88-1.572c1.31-.786 4.46 2.358 7.08 6.811 2.62 4.454 3.66 8.646 2.35 9.432l-2.88 1.572c-.78.524-2.62-.786-4.45-2.882 0 0-.26-.262-.26 0-.79.524-2.1 1.31-2.89 1.572-.26.262-.52.524-.52.786 0 1.834-.52 8.122-6.55 11.528-8.12 4.716-14.67 1.834-18.08 3.93-1.57 1.048-3.93 4.454-5.5 6.288-1.31 1.571-3.67 0-6.81-5.502l-.26-.262c0-.262-.26-.262-.26-.262-3.15-5.502-3.15-8.384-1.31-8.646 2.35-1.31 6.81-1.572 8.38-2.358z" stroke="#fff" stroke-width=".5" stroke-miterlimit="10"/><path d="M1137.69 200.545c5.24 0 8.39-.786 9.43-2.358v-3.668c0-.262-.26-.786-.52-1.048-1.05-.786-2.36-1.31-4.19-1.572v-3.668c0-.262 0-.262.26-.262 3.93-2.62 6.29-5.764 6.81-9.694.53-4.716-.52-9.17-3.14-13.623-1.57-2.62-2.36-4.716-2.36-6.288 0-1.048.79-3.144 2.36-6.55.52-1.31.78-2.358-.26-2.882-2.1-1.048-4.72-1.572-8.13-1.572m-.26 53.709c5.24 0 8.39.786 9.43 2.358v3.667c0 .262-.26.786-.52 1.048-1.05.786-2.36 1.31-4.19 1.572v3.668c0 .262 0 .262.26.262 3.93 2.62 6.29 5.764 6.81 9.694.53 4.716-.52 9.17-3.14 13.624-1.57 2.619-2.36 4.715-2.36 6.287 0 1.048.79 3.144 2.36 6.55.52 1.31.78 2.358-.26 2.882-2.1 1.048-4.72 1.572-8.13 1.572m229.51-53.708c-5.24 0-8.38-.786-9.43-2.358v-3.668c0-.262.26-.786.52-1.048 1.05-.786 2.36-1.31 4.19-1.572v-3.668c0-.262 0-.262-.26-.262-3.93-2.62-6.29-5.764-6.81-9.694-.52-4.716.52-9.17 3.14-13.623 1.58-2.62 2.36-4.716 2.36-6.288 0-1.048-.78-3.144-2.36-6.55-.52-1.31-.78-2.358.27-2.882 2.09-1.048 4.71-1.572 8.12-1.572m.26 53.709c-5.24 0-8.38.786-9.43 2.358v3.667c0 .262.26.786.52 1.048 1.05.786 2.36 1.31 4.19 1.572v3.668c0 .262 0 .262-.26.262-3.93 2.62-6.29 5.764-6.81 9.694-.52 4.716.52 9.17 3.14 13.624 1.58 2.619 2.36 4.715 2.36 6.287 0 1.048-.78 3.144-2.36 6.55-.52 1.31-.78 2.358.27 2.882 2.09 1.048 4.71 1.572 8.12 1.572" stroke="#fff" stroke-width=".5" stroke-miterlimit="22.926"/></svg>