<svg xmlns="http://www.w3.org/2000/svg" viewBox="0 0 36 36"><path d="M35.2 17.2V8.6c-.3-.7-.9-.9-1.6-.9h-5v-.1c0-.1.1-.2.1-.3.4-.9.5-1.9.3-2.9-.6-2.6-3-4.1-5.6-3.5-1.5.3-2.8 1.2-3.8 2.4-.6.7-1.1 1.5-1.6 2.2-.5-.7-1-1.5-1.6-2.2C15.1 1.7 13.5.8 11.5.8 8.6.7 6.4 3.5 7 6.5c.1.4.2.7.4 1.1H2c-.8 0-1.2.5-1.2 1.3v7.9c0 .8.5 1.3 1.3 1.3H3v15.8c0 .6.3 1.1.8 1.3.2 0 .4.1.6.1h27.5c.5 0 .9-.3 1-.8.1-.3.1-.5.1-.8V18.1c.9 0 1.9.2 2.2-.9zm-16 15.6V18.2h11.5v14.6H19.2zm-2.4 0H5.3V18.2h11.5v14.6zm16.1-17.1H19.2v-5.5h13.7v5.5zm-29.7 0v-5.5h13.6v5.5H3.2zm13.1-8.1h-5.2c-.9-.2-1.4-.7-1.7-1.6-.2-.9 0-1.6.6-2.2.7-.7 1.5-.7 2.4-.4.8.2 1.5.7 2.1 1.3.7.8 1.3 1.8 1.8 2.9zm3.4 0c.5-1.2 1.2-2.3 2.1-3.2.8-.7 1.7-1.2 2.7-1.2.6 0 1.1.2 1.5.6.4.4.7.9.7 1.5.1 1.2-.8 2.2-2 2.3-1.7.1-3.3 0-5 0z"/><path d="M4.3 35.7c-.2 0-.4 0-.6-.1-.8-.2-1.3-.9-1.3-1.8V18.6H2c-1.1 0-1.8-.8-1.8-1.8V8.9C.3 7.9 1 7.1 2 7.1h4.6c0-.1 0-.3-.1-.5-.4-1.6 0-3.2 1-4.5C8.5.9 9.9.2 11.4.2c2.1 0 3.9.9 5.3 2.7.4.5.8 1 1.1 1.6.6-.5.9-1 1.4-1.5C20.3 1.6 21.7.8 23.3.4c2.9-.6 5.6 1 6.2 3.9.2.9.2 1.9-.1 2.8h4.3c1 0 1.7.4 2.1 1.2v9c-.4 1.2-1.4 1.4-2.2 1.3v15.1c0 .3 0 .5-.1.8-.2.7-.7 1.1-1.5 1.2H4.3zM2.9 17.6h.5v16.3c0 .2.1.7.5.8h28c.3 0 .5-.2.6-.5 0-.1.1-.3 0-.5V17.5h.8c.9 0 1.2 0 1.4-.5V8.7c-.2-.4-.5-.5-1.1-.5h-5.5l-.1-.6.1-.4c.4-.9.5-1.8.3-2.6-.5-2.3-2.6-3.7-5-3.1-1.4.3-2.5 1-3.5 2.2-.4.5-.7 1-1.1 1.5-.2.2-.3.4-.5.7l-.3.5-.4-.6c-.2-.2-.3-.4-.5-.7-.3-.5-.7-1-1.1-1.5-1.3-1.5-2.8-2.3-4.6-2.3-1.2 0-2.3.5-3.1 1.5-.8 1-1.1 2.3-.8 3.6.1.2.1.5.2.7L8 8.2H2c-.6 0-.7.5-.7.8v7.9c0 .5.3.8.8.8h.6l.2-.1zm28.2 15.7H18.7V17.6h12.5v15.7zm-11.4-1.1h10.4V18.7H19.7v13.5zm-2.4 1.1H4.8V17.6h12.5v15.7zM5.8 32.2h10.4V18.6H5.8v13.6zm11.5-16H2.6V9.6h14.7v6.6zM3.7 15.1h12.6v-4.5H3.7v4.5zm29.7 1.1H18.7V9.6h14.7v6.6zm-13.7-1.1h12.6v-4.5H19.7v4.5zm2.9-6.9h-3.8l.3-.7c.6-1.5 1.3-2.5 2.2-3.4.9-.9 1.9-1.3 3.1-1.3.7 0 1.4.2 1.9.7.5.5.8 1.2.8 1.9s-.2 1.5-.7 2c-.5.5-1.1.8-1.8.8h-2zm-2.1-1.1h4.2c.4 0 .8-.2 1-.5.3-.3.5-.8.4-1.3 0-.5-.2-.9-.5-1.2-.3-.3-.7-.5-1.1-.4-.9 0-1.6.4-2.4 1.1-.6.6-1.1 1.4-1.6 2.3zm-3.4 1.1H11c-1.1-.3-1.8-.9-2.1-2-.3-1.1 0-2 .8-2.8.7-.7 1.7-.9 2.9-.6.9.2 1.6.7 2.3 1.4.8.8 1.4 1.9 1.9 3.1l.3.9zm-5.6-4.5c-.4 0-.8.1-1.1.4-.6.6-.7 1.1-.5 1.8.2.7.6 1.1 1.3 1.2h4.4c-.4-.8-.9-1.5-1.4-2.1-.6-.6-1.2-1-1.8-1.2-.5 0-.7-.1-.9-.1z"/></svg>