<svg width="20" height="21" fill="none" xmlns="http://www.w3.org/2000/svg"><path fill-rule="evenodd" clip-rule="evenodd" d="M10 2.792a7.708 7.708 0 1 0 0 15.416 7.708 7.708 0 0 0 0-15.416ZM1.04 10.5a8.958 8.958 0 1 1 17.917 0 8.958 8.958 0 0 1-17.917 0Z" fill="#FF9700"/><path fill-rule="evenodd" clip-rule="evenodd" d="M9.16 13c0-.46.373-.833.833-.833h.008a.833.833 0 0 1 0 1.666h-.008A.833.833 0 0 1 9.16 13Zm.84-1.875a.625.625 0 0 1-.625-.625V7.167a.625.625 0 1 1 1.25 0V10.5c0 .345-.28.625-.625.625Z" fill="#FF9700"/></svg>